<svg xmlns="http://www.w3.org/2000/svg" viewBox="0 0 824.39 560.17"><defs><style>.cls-1{font-size:25px;font-family:ComicSansMS-Bold, Comic Sans MS;font-weight:700;}</style></defs><g id="Bubbles"><path d="M824.39,384.74c-1.75,4-3.4,8.09-5.25,12.06a22.85,22.85,0,0,1-14.85,12.81c-4.59,1.35-9.34,2.21-14,3.1-5,.93-8.75-1.37-12.19-4.79-2.81-2.79-6-5.19-9-7.76-2.53-2.14-2.63-2.9-.82-5.48-5.18-9.67-5.38-20.26-6.52-30.76-1-9.1,3.83-15.27,9.3-21.07,4.69-5,10.26-9.07,17.22-10.52a20.41,20.41,0,0,1,5.92-.46c10.82,1,20,5.19,24.73,15.49,2.32,5.05,3.06,10.82,4.48,16.28.43,1.68.71,3.4,1.07,5.1Zm-47.75,12.14c3.53,2.79,6.88,5.5,10.32,8.1a4.86,4.86,0,0,0,2.34.74,24.13,24.13,0,0,0,17.42-4.79c7.57-5.58,10-13.95,9.95-22.93a86.57,86.57,0,0,0-4.76-26.92c-3.48-10.25-17.06-16.5-26.24-11.36-7.44,4.16-12.52,10.3-16.09,17.86a3.78,3.78,0,0,0-.26,1.46,76.89,76.89,0,0,0,3.59,26.09,6.69,6.69,0,0,0,2.7,3.39C779.63,391,780.1,393.28,776.64,396.88Z"/><path d="M824.39,122.24c-1.41,3.26-2.78,6.54-4.24,9.78-1,2.19-2,4.39-3.19,6.49s-2.91,3.29-5.6,2.38c-1.48-.49-3.21-.28-4.65-.84-3.65-1.41-7.21-3.08-10.93-4.71a2.42,2.42,0,0,1-.26,1.14c-.59,1-1.18,2.42-2.11,2.78-.73.28-2.15-.55-3-1.23-2.51-2.12-2.59-5-2.27-8,.6-5.59,2.79-10.7,4.46-16,1.54-4.9,3.81-9.39,7.51-12.75a158.93,158.93,0,0,1,16.39-13c2.09-1.45,5.21-1.41,7.86-2Zm-4.45-10.89c-3.76-.32-6.68.52-8.42,3.17a22.53,22.53,0,0,0-2.89,7.25c-.67,3-2.53,4.48-4.52,3a7,7,0,0,1-3-6.68,16.62,16.62,0,0,1,17.28-14.32c1,.08,2.08.2,3.15.3v-9.2c-2.47,1.58-4.37,2.84-6.32,4C806,104.5,799.77,112.23,797.75,123a4.48,4.48,0,0,0,.18,2.82c2.21,3.81,5,6.75,10,6.82,1.55,0,2.47-.17,3.16-1.62,2.27-4.82,4.68-9.57,7-14.39C818.73,115.08,819.19,113.4,819.94,111.35Z"/><path d="M583.07,193.62c-10.51,4.58-20.93,9.38-31.56,13.66-5.68,2.29-11.63,4.09-17.89,4.29-.72,0-1.43.15-2.87.31,1.77,1,3,1.57,4.13,2.34,5.92,4.13,10.25,9.52,12.17,16.52,1.57,5.76,2.68,11.65,4,17.47s-.23,11.11-2.57,16.59c-3.28,7.67-9.34,11.59-16.33,14.88-3.53,1.66-6.78,4-10.4,5.33a16.23,16.23,0,0,1-7.91.77c-2.58-.4-3-2.18-1.15-4.12a2.11,2.11,0,0,0,.24-3c-2.35-3.9-4.67-7.83-7.07-11.7-5.73-9.25-11-18.73-12.64-29.66a13.54,13.54,0,0,1,3.25-11.38,47.83,47.83,0,0,1,21.78-14.37,3.46,3.46,0,0,0,.67-.41c-25.77-2.51-50.78-7.2-72.79-22.25,3.14,8.87,8.54,16.84,7.32,26.91-1.16,9.58-3.23,18.59-9.53,26.38l2.1-1c8.62-4.31,17.41-5.46,26.47-1.43,6.6,2.94,10.67,8.41,13.84,14.54a84,84,0,0,1,4,10.47c1.93,5.42,4,10.8,5.61,16.3a41.78,41.78,0,0,1-.05,23.89c-.7,2.43-2.65,4.59-4.31,6.64-4.27,5.31-8.66,10.52-13.1,15.7-3.57,4.17-8.34,5.68-13.66,5.27-1.31-.1-2.65-1.16-3.78-2-1.61-1.26-2.91-2.94-4.57-4.11-3.47-2.44-7-4.83-10.67-6.94-5.3-3.05-8.51-7.82-11.43-12.91-.16-.29-.24-.69-.48-.86-4.95-3.62-6.52-9.2-8-14.61a112.55,112.55,0,0,1-2.84-15.91,67.57,67.57,0,0,1-.12-10.93,11.18,11.18,0,0,1,3.74-7.92c3-2.8,6-5.68,9.4-8.93-8.1,2.08-15.79,5.29-23.05-1,.23-.69.37-1.15.53-1.6s.31-.74.4-1c-3.93-3-7.88-5.76-11.55-8.85-7.46-6.27-11-14.71-12.45-24.08a43.17,43.17,0,0,1-.63-11.6c.87-7.1,5-12.83,10.42-17,7.49-5.8,16.21-8.92,25.89-7.8,2.73.32,5.37,1.64,8,2.65a30.37,30.37,0,0,1,3.93,2.34c-.34-1.32-.48-2.09-.74-2.81-.95-2.58-1.86-5.18-2.95-7.69-1.3-3-1.38-3,1.88-4.34-10.47-13.58-14.28-29.45-15.68-46.64a17.27,17.27,0,0,0-2.22,1.59c-4.74,5-10.91,7.48-17.19,9.77a49.84,49.84,0,0,0-7.61,3.13c-1.34.76-2.13,2.48-3.17,3.77-.82,1-1.48,2.53-2.51,2.84-.71.22-2.31-1-2.84-2-1.09-2-2.5-2.54-4.66-2.48-5.48.15-8.06-.94-10.92-4.17,1.7-3.93,1.69-3.89,5.88-3.17,2.16.37,4.35.57,6.74.88-.49-6.32-2.68-11.51-5.4-16.6-3.09-5.8-5.92-11.73-8.71-17.68-4.11-8.77-3.91-17.93-2-27.15a46.59,46.59,0,0,1,10.4-21.5c5.9-6.82,13.78-10,22.53-11.13A36.26,36.26,0,0,1,418,36.69a35.79,35.79,0,0,1,18.35,17.92c.39.83.81,1.65,1.24,2.46.06.12.26.17.63.41l7.91-8.83c6.82-7.58,14.17-14.59,23.07-19.65,4.89-2.78,9.95-5.59,15.29-7.17,7.28-2.17,14.87-3.38,22.38-4.65,13.41-2.26,26.73-.3,40.05,1.26,4,.47,8.13.64,12.2.82a54.16,54.16,0,0,1,21.38,5.44c6.59,3.2,13.25,6.27,19.67,9.79A83.91,83.91,0,0,1,622.62,51.8c8.81,9.85,13.43,21.52,12.39,35-.15,1.9-.13,3.83-.22,5.74a48.78,48.78,0,0,1-3.19,16.55c-2.43,6-3.79,12.37-5.87,18.51a111.12,111.12,0,0,1-5.29,13.43q-5.9,12-12.44,23.65c-4.12,7.31-10.11,13.16-15.93,19.12C589,187,586,190.4,583,193.69ZM442.84,171.28c.75,3.43,4.65,10.23,7.4,12.11,8.31,5.7,16.87,11.13,26.68,13.84,16,4.43,32.19,7.65,48.91,8,8.22.18,16-.32,23.58-3.94,6-2.88,12.12-5.53,18.32-7.9,4.77-1.82,9.07-4.07,12.3-8.16,1.54-1.95,3.46-3.6,5.12-5.46,4.43-5,9.23-9.65,13.09-15,3.17-4.41,5.29-9.59,7.71-14.51,3.92-8,8.07-15.88,11.44-24.1,2.71-6.59,4.28-13.63,6.6-20.39,1.44-4.19,2.74-8.35,2.84-12.83.09-4.32.45-8.65.43-13,0-9.42-2.73-18.15-9.36-24.87a91.15,91.15,0,0,0-17.19-13.92,195.14,195.14,0,0,0-25.25-12.54c-4.09-1.75-8.83-2.1-13.33-2.76-4-.58-8.07-.48-12-1.06-15.37-2.25-30.69-3.68-46.24-1.25-12.84,2-24.7,6.11-35.19,13.83s-19,17.16-27,27.25a6.72,6.72,0,0,0-1.54,5.29c.5,4.4.69,8.83-1.31,13s-4.13,8.55-6.25,12.79c-3,6-6.31,12-5.17,19.13.27,1.73.28,3.49.46,5.23,1.44,13.51,5,26.36,12.56,37.78,2.47,3.74,5.19,7.58,10.25,8.53,1.72.32,2.14,1.66.95,3.24C449.62,172.31,446.55,173,442.84,171.28ZM403.76,39.71a28.88,28.88,0,0,0-18.95,6.54c-4.24,3.48-6.94,8-8.95,13-4.22,10.59-5.57,21.39-1.06,32.07,3.23,7.64,7.45,14.87,11.32,22.23a5,5,0,0,0,2.19,1.89c3,1.5,3.23,2.74,1.47,5.61-.54.89,0,2.59.38,3.8.12.37,1.59.63,2.27.41,7.81-2.51,15.17-5.84,21.4-11.43,3.76-3.38,6.1-7,6.29-12.36.42-12,4.74-22.89,10.72-33.13a7.8,7.8,0,0,0,.86-6.63C428.18,50.07,417.69,39.34,403.76,39.71ZM430.23,270.1l-.31,0c.52,3.87.83,7.78,1.59,11.6,1.82,9.06,7.22,16.31,12.45,23.61a23.41,23.41,0,0,0,4.11,5,72,72,0,0,0,11.24,7.78c3.87,2,6.56,6.66,11.86,5.63.82-.16,2,0,2.42-.5,4.24-4.8,8.46-9.63,12.45-14.63a14.07,14.07,0,0,0,2.8-5.76,35.3,35.3,0,0,0-.45-16.57,197.23,197.23,0,0,0-6.31-19.37c-2.43-6.06-5-12.18-9.72-17-5.34-5.47-11.52-8.27-19.12-5.77-6.85,2.26-12.24,6.82-17.63,11.49a14.58,14.58,0,0,0-5.38,12.24C430.25,268.6,430.23,269.35,430.23,270.1Zm90.46,6.53a9.79,9.79,0,0,0,1.77-.38c2.81-1.26,5.71-2.37,8.37-3.89,2.86-1.62,6.2-3.1,8.07-5.6,3.67-4.88,5.69-10.4,4.56-17-1.63-9.56-4.23-18.64-9.67-26.74-2.94-4.37-11.25-7.25-15.88-4.88A102.86,102.86,0,0,0,504,227.2c-3.45,2.56-4.06,6.48-2.9,10.41a104.41,104.41,0,0,0,4.21,11.17c3,7,7.48,13.16,12.3,19,.36.44,1.38.44,2.09.46,1.14,0,2.28-.09,3.42-.14,0,1.3.42,2.69.07,3.87A26.71,26.71,0,0,1,520.69,276.63Zm-117.13-51c2.07-2.19,1.53-3.37.25-5.15a16.15,16.15,0,0,1-3.09-7.39,43.9,43.9,0,0,1,.43-11.67c.76-4.59,2-9.57,6.43-11.87,11-5.66,21.2-5,28.55,6.21,3.86,5.88,3.93,12.57,4.3,19.23.5,9-4.19,14.78-11.83,18.41-3.3,1.56-7,2.28-10,3.22v5.93h2.69c13,0,18.9-4.72,22.35-15.94,5-16.26-.29-30.27-11.84-42.17a13,13,0,0,0-9.28-3.71,27.66,27.66,0,0,0-18.3,6.23,19.08,19.08,0,0,0-7.42,11.79,33,33,0,0,0,1.6,16C399.66,218.4,401.75,221.81,403.56,225.58Zm10.95.33c2.71,2.21,5.38,3,8.65,1.94,6.4-2.12,9.44-5.61,9.17-11.91a64.94,64.94,0,0,0-1.93-12.52,16.9,16.9,0,0,0-3.29-6.07c-4-5.12-8.83-6.11-14.56-3.13a5.72,5.72,0,0,0-2.43,2.6c-2.1,4.78-2.25,9.85-1.61,14.94.42,3.38,2.54,5.47,5.69,6.59a11,11,0,0,1,2.54,1c.82.56,1.95,1.39,2,2.15a4.65,4.65,0,0,1-1.48,2.82A11.24,11.24,0,0,1,414.51,225.91Z"/><path d="M691.39,29.82a11,11,0,0,1,1.38-2.51c6.27-6.62,13.71-11.07,22.94-11.95,5.61-.54,11.24-1,16.87-1.19,7.65-.25,14.27,3.09,20.56,6.87A87.34,87.34,0,0,1,784,53.1c6.65,11.57,8.23,24.23,7.11,37.42-.88,10.46-2.68,20.69-6.81,30.32-2.94,6.86-6.58,13.43-10.13,20a50.61,50.61,0,0,1-13.06,16.23,44.88,44.88,0,0,1-7.15,4.94c-5.31,2.69-10.23,6.35-16.39,7.07-13.87,1.62-27.7,3.84-41.75,3a11.47,11.47,0,0,0-1.6.15,36.19,36.19,0,0,1,1.19,4.39c.37,2.45-.86,3.36-3.24,2.79-3-.72-4.27-3.2-5.55-5.42a109.29,109.29,0,0,1-5.28-11c-1.43-3.28-1.32-3.41,1.21-6-2.37-3.33-4.87-6.63-7.14-10.08-4.19-6.37-8-12.92-8.07-20.9a36.74,36.74,0,0,0-.66-6.45c-1-5.4-2.6-10.72-3.18-16.15-1.27-11.79-.59-23.45,4.34-34.5,3.71-8.34,7.37-16.71,11.4-24.9,1.32-2.66,3.79-4.74,5.66-7.15,1.41-1.82,2.64-3.78,4.1-5.56A8.9,8.9,0,0,1,691.39,29.82ZM674,120.4l-.63.34c.55,3.76.67,7.64,1.71,11.26,2.18,7.58,7,13.76,11.82,19.81.68.85,2,1.15,2.9,1.9a6.57,6.57,0,0,1,1.73,2.31c1.19,2.8-.74,4-2.85,4.91,1.09,4.24,1.45,4.85,5.24,5a164.1,164.1,0,0,0,19,0c7.28-.58,14.51-1.93,21.76-3,10.44-1.48,18.81-6.86,26-14.24,7-7.16,10.93-16.27,15.37-25,6.12-12,8.57-25,9.29-38.32.59-10.9-1-21.32-6.7-30.77a93,93,0,0,0-20.07-23.4c-15-12.47-31.48-14.33-49.08-6.76-9,3.85-15.56,10.88-21,18.73A121.89,121.89,0,0,0,672.51,76c-.63,2-1.1,4-1.65,6l.71.27c1.45-2.49,2.79-5.06,4.39-7.45a60.86,60.86,0,0,1,4.59-5.8,30.17,30.17,0,0,1,3-2.86c1.26-1.14,2.39-2.63,3.88-3.29,13.84-6.14,26.37-3.08,37.27,6.55,8.77,7.75,11.27,17.69,8.62,29.26-2.39,10.38-8.59,17.81-16.53,24.19a10.7,10.7,0,0,1-3.36,1.58c-5.06,1.66-10.25,1.56-15.53,1.61C689.4,126.14,681.29,125.32,674,120.4Zm.89-6.21c1.56.87,2.66,1.55,3.82,2.13,7.77,3.85,16.12,3.91,24.45,3.37A18.31,18.31,0,0,0,715,114.94,39,39,0,0,0,727,92.5c1.36-7.71-.74-14.43-6.72-19.57a43.08,43.08,0,0,0-8-5c-7.5-4-18.07-2.7-24.13,3.27-7,6.91-12,15.12-13.84,24.94a22.93,22.93,0,0,0,.14,7.66c.67,4.06,3.69,6.22,7.81,6.07a19,19,0,0,1,2-.13c1.87.17,3.07,1.33,2.74,3.1-.14.76-1.68,1.76-2.62,1.79C681.48,114.69,678.52,114.38,674.9,114.19Z"/><path d="M147,191.24c6.53,5.84,7.28,13.79,8.05,21.65.57,5.92-1.08,11.62-3.09,17.06-.82,2.18-3.2,4-5.27,5.47-5.84,4-12.47,5.34-19.5,4.79a8.93,8.93,0,0,0-3.22,0c-3.33,1.08-5.69-.58-8.26-2.27-6-3.95-9.52-9.88-13.1-15.79a78.37,78.37,0,0,1-4.49-7.78c-3.06-6.67-1.45-13.31,1.1-19.6,1.75-4.33,3.51-8.92,7.6-11.81a5.16,5.16,0,0,1,3.38-1.06,100.1,100.1,0,0,1,11.9,2.6c5.57,1.66,10.93,4.08,17.13,3.71a21.39,21.39,0,0,0-2.1-1.24c-1.9-.85-3.87-1.56-5.73-2.48-.94-.46-2.27-1.11-2.46-1.91-.65-2.68-2.75-3.81-4.71-5.16-6.14-4.22-10.4-10-13.66-16.57A18.2,18.2,0,0,0,109,158c-6.72-9-7.52-19.48-8-30.09-.41-8.4,1.6-16.28,4.48-24.1,3.92-10.59,11.23-18.24,20.47-24.17a80.81,80.81,0,0,1,12.85-6.53,24.16,24.16,0,0,1,8.29-1.52c5.55-.19,11.12-.07,16.68.12,4.83.17,8.56,3.07,12.25,5.72,6,4.28,10.39,10,14,16.38,3,5.33,6.11,10.64,8.89,16.1,2.26,4.45,2.24,9.35,1.83,14.2-1.13,13.24-4.35,26.06-7.38,39-1.33,5.65-4.38,10-7.46,14.45-5.31,7.68-13.38,10.74-22.16,12.11C158.32,190.45,152.83,190.69,147,191.24Zm-7.73-11c.64.38,1.38.89,2.18,1.27a27.63,27.63,0,0,0,15,2.73c5.35-.6,10.95-.2,15.69-3.38,6.42-4.31,10.37-10.74,12.77-17.74,3.66-10.64,5.29-21.81,6.8-33,1.58-11.74-.35-22.52-7.63-32.09-.81-1.06-1.3-2.34-2.06-3.43-2.51-3.6-4.77-7.44-7.72-10.65-2.13-2.32-5-4.89-7.88-5.41-10.39-1.87-21-2.53-30.75,2.67a75.14,75.14,0,0,0-11.57,8.17,37.7,37.7,0,0,0-12,18A81.25,81.25,0,0,0,109,122.6c-2,16.33,4,30.17,13.64,42.85a26.75,26.75,0,0,0,10.85,8.93,3,3,0,0,0,2.45,0c2.33-1.85,4.27-1,6.62.66ZM134,194.58c3.33,5.78,5.22,11.18,5.22,17.17,0,4-2.67,8.57-6.5,9.31-3.59.7-7.38.46-11.08.48a15.09,15.09,0,0,1-4.63-.67c-1.3-.43-2.88-1.09-3.56-2.14a40.24,40.24,0,0,1-3-6.57c-3.56-8.71-1.44-14.94,6.71-19.58a34.07,34.07,0,0,1,4-1.66,30.18,30.18,0,0,0-7.22-3.14c-1.87-.59-3.2.21-4,2-1.08,2.25-2.33,4.43-3.29,6.72-2.81,6.69-3.87,13.31,1.18,19.57a27.58,27.58,0,0,1,1.6,2.81c3,4.79,6,9.63,10.77,12.95a7.84,7.84,0,0,0,3.23,1.7c4.81.47,9.69.72,14.33-1,5-1.83,7.69-4.93,8-10a31,31,0,0,1,.27-3.49c1.35-7.22-.06-14.07-2.79-20.72a4.82,4.82,0,0,0-2.55-2.44A50.07,50.07,0,0,0,134,194.58Zm-3.38,16.6.68-.24c-1.5-4.18-2.89-8.4-4.58-12.5-.32-.76-1.79-1.39-2.77-1.46a6.15,6.15,0,0,0-5.65,3,10.06,10.06,0,0,0,7,15.48C129.28,216.14,130.61,215.07,130.62,211.18Z"/><path d="M626.44,491.23c2,1.08,4,2,5.77,3.09,11.21,6.93,14.09,18.89,11.47,30a6.54,6.54,0,0,1-.82,2.07c-2.86,4.27-5.57,8.67-8.74,12.69-1.56,2-4,3.26-6.36,5.11L617.5,531.11a30,30,0,0,1-5.34-1.22,141.92,141.92,0,0,1-14.94-6.82,20.4,20.4,0,0,1-9.48-12.42,9.78,9.78,0,0,1,.25-5.38c2.36-7.54,7.08-12.94,14.93-15,2.88-.77,5.87-1.12,8.81-1.65.79-.14,1.59-.25,2.38-.37l.09-1c-1.75-.18-3.57-.76-5.25-.47-14.37,2.42-26.65-2.82-38.41-10.16-5.5-3.42-8.54-8.57-10.11-14.61-1.52-5.89-2.52-11.88-1.86-18,.27-2.55,0-5.15.08-7.73.33-9.07,3.79-16.74,9.41-23.92,4.26-5.44,9.77-7.81,15.94-9.41,6.61-1.71,13.28-3.14,19.91-4.75,10.77-2.63,21-1.33,31.15,3.15,7.38,3.25,12.65,8.66,18,14.28a36.27,36.27,0,0,1,8.22,13.52c1.82,5.33,4,10.56,5.93,15.84,1.56,4.17,1.37,8.5,1.11,12.83a6.68,6.68,0,0,1-.5,2.69c-4.68,9-9.08,18.26-18.29,23.76a18.46,18.46,0,0,1-4.35,1.82C639,487.81,632.88,489.46,626.44,491.23Zm-2.76-6.68c4.25-.95,8.41-1.64,12.42-2.83,5.06-1.51,10.65-2.23,14.28-6.61,3-3.56,5.41-7.54,8.17-11.26,3.23-4.35,3.23-9.22,2.1-14.1a77.47,77.47,0,0,0-9.43-23.26c-3.15-5.06-7.61-9.42-12-13.57C632,406,623.15,402,613,403.3c-9.46,1.22-18.8,3.43-28.19,5.23a16.87,16.87,0,0,0-10.11,5.87c-4.13,4.85-7.58,9.91-8.25,16.43-.77,7.46-1.22,14.9-.08,22.41,1,6.68,2.59,12.95,8.33,17.23a50,50,0,0,0,22.62,9.3c6.77,1,13.7,1,20.57,1.31.89,0,1.79-.92,2.73-1.31a3.94,3.94,0,0,1,2.19-.56c.5.13,1,1.06,1.1,1.69A20.81,20.81,0,0,1,623.68,484.55Zm-13.6,11.73a16.78,16.78,0,0,0-11.54,3.11,8.7,8.7,0,0,0-1.42,12.37c5.16,6.5,13.16,7.37,20.07,10.41a12.83,12.83,0,0,1,3.85,2.72c1.59,1.61,2.91,3.48,4.36,5.23,1.19,1.44,2.46,2.83,3.59,4.33.85,1.13,1.89,1.48,2.54.19,1.94-3.92,4.85-7.84,5.24-12,1.13-12-3.27-17.85-13.6-23.42a23.68,23.68,0,0,0-2.77-1.08c1.58,3.06,3,5.67,4.29,8.37,2,4.35,1.07,7.65-2.92,11-3.48,2.91-7.2,2.9-11.09.85-5.82-3.09-6.55-11.92-5-16.32C606.46,499.91,608.56,498.22,610.08,496.28Z"/><path d="M15.05,311.08c.9.23,1.29.47,1.62.4,7.52-1.62,14.54-4.29,20.09-9.88A9.2,9.2,0,0,0,39,298.34c3.72-10.45-3.18-28.66-13.23-33.47a33.73,33.73,0,0,0-13.24-3c-5.12-.16-9.09,3-12.4,7.72,0-3.16-.06-5.78,0-8.4a2.77,2.77,0,0,1,1.05-1.56c4.23-3.69,9.25-4.8,14.67-4.15,3.62.42,7.2,1.14,11.28,1.81-.95-1.58-1.66-2.92-2.51-4.17-9.37-13.78-13.87-28.8-11.76-45.56,1.41-11.25,7.44-18.93,17.59-23.85,9.25-4.47,18.49-4,27.91-1,6.45,2,12.85,4,17.84,9,5.23,5.24,9.46,10.89,11.8,18.16,1.92,6,1.37,12,1.64,18,.28,6.37-.37,12.78-.63,19.17-.33,8.2-4.71,14.38-10.09,20-2.23,2.34-4.43,4.73-6.83,6.89-4.63,4.19-10,6.93-16.37,7-4.1.06-6.16-2.19-6.09-6.68l-6-1.77c1.13,2.78,2.23,5,2.94,7.32,2.14,7.06,2.15,14.17-.86,21-2,4.54-5.95,7.51-10.06,10.15-6.9,4.44-14.63,6.74-22.55,8.43a7.84,7.84,0,0,1-4.32-.5c-1.52-.6-2.47-1.73-1.63-3.77.91-2.2.13-3.18-2.31-3.63C2.87,311.15.14,308.11.1,306a121.47,121.47,0,0,1,.5-14.68,24.47,24.47,0,0,0,1.26,2.92c1.75,3.09,3.52,6.19,5.41,9.19,1,1.58,2,1.18,2.68-.4.48-1,1.12-2,1.81-3.22A16,16,0,0,1,3,292.68C-.27,287.27-.83,282,3,276.58c2-2.87,3.81-5.88,7.11-7.51,7.17-3.54,16-.39,19.73,6.83,3.43,6.59,2.38,12.7-1.63,18.46-2.78,4-5.32,8.33-10.33,10.42C19.94,307.89,17.22,309.13,15.05,311.08Zm41-38c5,1.06,6.68.61,10-2.5,1.63-1.55,3.29-3.06,4.88-4.65,5-5,9.24-10.51,9.86-17.95.28-3.39.62-6.78.65-10.17,0-4.74-.19-9.47-.32-14.21-.28-9.84-2.73-18.85-9.53-26.41-5.94-6.6-13.66-9.7-22-11.36-13.87-2.75-26.44,5.31-29.21,20.37a48.56,48.56,0,0,0,.75,19.35c3,13.58,10.21,24.83,19.6,34.81a23.35,23.35,0,0,0,11.51,7.13,15.29,15.29,0,0,1,2.7,1.25C56.83,269.62,58,270.79,56.05,273.05ZM17.47,295.8c.81-.94,1.84-2.21,3-3.41,6.07-6.57,2.06-15.17-3.84-17.9a4.43,4.43,0,0,0-3.66.31c-5.49,3.81-6.36,9-2.49,14.4a22.8,22.8,0,0,0,3.24,3C14.9,293.36,16.11,294.52,17.47,295.8Z"/><path d="M650,293.21c-1.77,1.59-3.35,3.49-5.35,4.71-6.71,4.13-13.69,7.65-22,6.41-5.54-.82-9.07-6.14-10.07-10.61a4.54,4.54,0,0,1,1.45-3.88c1.66-1.1,1.35-2.15,1-3.59-1-4.67-1.69-9.39,0-14a8.67,8.67,0,0,1,2.59-3.79,92.47,92.47,0,0,1,10.24-7,19,19,0,0,1,6.63-2c10.16-1.48,15.67,4.12,18.66,14.62.93,3.27.58,6.91.78,10.38.06.9,0,1.81,0,3.43,1.31-1.51,2.26-2.57,3.16-3.67,2.85-3.47,5.56-7.06,8.54-10.41,9.61-10.85,21.9-14.5,36-13.1,10.29,1,18.84,5.8,26.43,12.48a129.45,129.45,0,0,1,9.92,9.82,33.59,33.59,0,0,1,8.67,18.18c1.6,10.55,2.12,20.95,0,31.51-2.92,14.43-12.2,22.7-25.54,26.94-7.43,2.36-15.12,3.95-22.73,5.74a22.66,22.66,0,0,1-4.95.14,9.6,9.6,0,0,0-2.21,0c-6,1.51-11.25-.56-16.15-3.82a4.32,4.32,0,0,1-1.9-2.18c-.51-2.38-2.34-3.36-4-4.61-5.26-3.84-9.42-8.48-11.77-14.78-1.8-4.81-4.68-9.21-6.44-14-2.66-7.31-4.57-14.85-3-22.76.47-2.36,1.16-4.68,1.76-7,.24-.94.51-1.86.77-2.8Zm31.91,63.4c1.86,1.81,3.89,2.06,6.14,1.92,2-.12,4,.12,5.95.12a27.63,27.63,0,0,0,5.91-.23c5.83-1.29,11.58-2.88,17.38-4.28,11.77-2.83,19-10.13,21.62-21.93a76,76,0,0,0,.69-26.31c-.79-6.06-1.47-12.16-5.44-17.13A121,121,0,0,0,725,278.31c-7.11-7-15.19-12-25.68-12.3-9.09-.23-17.58,1.26-24.13,8a179.1,179.1,0,0,0-13.75,16.12c-6.62,8.64-7.49,18.31-4.65,28.69,1.67,6.1,4.9,11.44,7.19,17.21s6.27,9.44,10.91,12.93c1.72,1.29,3.32,2.19,5.65,2a5,5,0,0,1,3.51,1.72c.29.31-.81,2-1.31,3A6.62,6.62,0,0,1,681.94,356.61Zm-37.78-81.84c-.42-1.3-.55-1.86-.77-2.37-3.26-7.57-5.24-7.27-11.47-5.16-3.75,1.27-7.48,3.49-8.88,7.18-1.78,4.68.07,9.46,1.84,14a4.9,4.9,0,0,0,.49-2.09c.22-2.81.24-5.65.68-8.42A9.37,9.37,0,0,1,640.71,272C641.7,272.72,642.63,273.53,644.16,274.77Zm-8.26,15c2.18-4.07,1.94-10-.49-12.2C632.5,280.65,632.83,289,635.9,289.79Zm-5.51,7-4.13-4.87-.46.45c.35,1.59.69,3.17,1.11,5.1Z"/><path d="M720.38,418.57c-4.36,3.35-8.23,6.06-11.8,9.12-5.38,4.63-12,6.49-18.53,8.23-3.21.84-4.2-.62-3.19-3.72.25-.78.65-1.51,1.06-2.45-1.74-1.05-3.37-2.17-5.12-3.05A44,44,0,0,1,668.7,415c-4.76-5.74-5.63-12.25-4.29-19.25a55.74,55.74,0,0,1,2.29-8.42c2.5-6.93,8.18-10.7,14.38-13.81,10.89-5.45,21.3-4.39,30.94,2.89a127.06,127.06,0,0,1,12.44,10.74c3.28,3.24,3.91,7.76,4.43,12.2a14.87,14.87,0,0,1-3.33,11.9l.61.43c.74-.54,1.53-1,2.21-1.61,5.09-4.48,11.16-6.44,17.78-7.06,6.83-.64,13.54-.71,20.26,1.34,7.76,2.38,12.27,7.75,14.93,14.9a85.91,85.91,0,0,1,4.76,38.58c-.44,4.71-.41,9.47-.52,14.21-.07,2.94-1.29,5.24-2.89,7.73-5.93,9.28-15,13.11-25.11,15.06a19.38,19.38,0,0,1-6.69-.28,31.93,31.93,0,0,1-19.65-10.88c-3-3.5-6.5-6.66-9.38-10.28-3-3.82-2.86-9.83.07-13.7,1-1.3.7-2.32.2-3.66-1.9-5-4.15-10-5.34-15.23a27.49,27.49,0,0,1,2.11-17.56A45.94,45.94,0,0,0,720.38,418.57ZM730,471.13a46.16,46.16,0,0,0,14.49,13.13c10.63,5.82,18.58,4,27.14-2.51,4.18-3.2,7.08-7.59,7-13.44-.07-6.82.41-13.64.4-20.46a70.27,70.27,0,0,0-6.53-29.74,13.31,13.31,0,0,0-9.18-7.78,48.16,48.16,0,0,0-20.06-.76,21,21,0,0,0-13.86,8.65c-6.25,8.73-7.47,18.26-3.07,28.12,2.63,5.91,5.81,11.58,8.84,17.31,1,1.84,2,3.6.49,5.54A5.15,5.15,0,0,1,730,471.13Zm-29.46-47.5c.1.28.2.56.31.84,6.29-4.7,13.13-8.68,17.54-15.61a13.36,13.36,0,0,0,.57-14c-4.3-8.49-12-13.37-20.3-17.26a13.81,13.81,0,0,0-5.33-1c-6.79-.17-17.21,4.76-20.43,13.85-3,8.4-1.41,16.94,4.86,23,4.47,4.3,9.84,7,15.57,9.16a8.85,8.85,0,0,0,1.94.34C697.06,423.17,698.81,423.4,700.57,423.63Z"/><path d="M797.92,247c3.32,2.08,7.1,3.53,9.62,6.19,8.61,9.07,12.51,20,10.23,32.5a21.47,21.47,0,0,1-3.56,8.1c-3.18,4.57-6.79,8.85-10.34,13.14-4.25,5.13-14.48,6.22-19.82,2.26-2-1.47-2.75-3.25-1.47-5.78a19.55,19.55,0,0,1-10.52-10.93c-2-4.79-2.17-9.9-2.07-15,.16-8,2-15.54,6.94-22,3.32-4.37,7.5-7.55,13.17-8.25a10.37,10.37,0,0,0,1.47-.31c.14,0,.24-.2.52-.44l-2.56-2.28c-1.62-1.47-1.56-2.59.41-3.61a11.23,11.23,0,0,1,3.1-.72c1.33-.24,2.67-.42,4-.62l0-.67c-.69-.1-1.37-.23-2.06-.32-6.18-.77-12.09-2.4-17.23-6.08a5.83,5.83,0,0,1-2.33-3.28c-.68-4.09-1.56-8.28-1.29-12.36a16.6,16.6,0,0,1,10.3-14.81c17.58-7.65,30.25,6.77,30.17,20.13a37.94,37.94,0,0,1-2.86,14.59c-2.34,5.35-7.24,8.71-13,10.35Zm10.85,40.12-.67-.4a16.13,16.13,0,0,0-1.39.94c-4.32,3.75-9.38,5.34-15.06,5.84-6.39.56-8.93-5-8.44-9.6a25.3,25.3,0,0,1,11.11-18.71c2.84-2,5.89-2.67,9.12-.86l3.7,2.1a19.62,19.62,0,0,0-7.5-11.34,9.66,9.66,0,0,0-12.64.33c-6.25,5.23-8.46,12.37-9.09,20.14-.53,6.65.59,13,4.73,18.45,1,1.37,2.09,2.5,4.12,2.18a2.88,2.88,0,0,1,3.48,2.77c.13,1.48-.53,3-.86,4.64,4.65,2.08,6.77,1.62,10-2.64,2.76-3.66,5.41-7.4,8-11.14A19.53,19.53,0,0,0,808.77,287.15Zm-23.5-57.62c.3-5.85.71-10.75,5.58-13.89,4.31-2.77,8.54-5.26,13.79-1.61-1.49-3.32-2.42-6.73-6.34-7.4-4.61-.78-8.94-.32-12.49,3.19-5.25,5.19-4.11,11.33-2.56,17.49C783.41,228,784.25,228.44,785.27,229.53Zm17,48.85c-.43-2-.74-4.06-1.34-6-.28-.91-.95-2.32-2.32-1.18-3.7,3.08-6.42,6.81-6.3,11.85a3.44,3.44,0,0,0,2.29,2.34C797.79,285.89,802.08,281.71,802.25,278.38ZM799,220.66l-1.11-.7a46.17,46.17,0,0,0-3.46,4.11c-.3.42.2,1.39.34,2.11.74-.17,1.91-.12,2.15-.57A41.67,41.67,0,0,0,799,220.66Zm1.15,16.42,3.78-4.25-.5-.45C800.7,233.73,800,234.62,800.14,237.08Z"/><path d="M130.4,350.18c-5.45,1.31-10-.65-14.42-3.49-3-1.94-6.3-3.44-9.16-5.55-5.46-4-6.95-10.36-8.74-16.42a39.73,39.73,0,0,1-1.19-6.11,4.87,4.87,0,0,1,2.49-5,2.45,2.45,0,0,0,.71-2.25c-.91-2.31-2.09-4.52-3.21-6.76a47.22,47.22,0,0,1-5.17-24.4,52.26,52.26,0,0,1,3.53-14.7c.92-2.45,3.41-4.48,5.59-6.22a90.9,90.9,0,0,1,11.42-8c11.33-6.47,23.53-7.13,36.05-4.53a25.83,25.83,0,0,1,12.51,6.94c6.76,6.42,13.5,12.86,20.1,19.43a17,17,0,0,1,3.14,5c1.8,3.92,3.13,8.08,5.14,11.89,3.61,6.84,3.49,13.35.53,20.54-5,12-13.29,21.2-22.89,29.45-1.8,1.55-4.37,2.22-6.61,3.24a27.85,27.85,0,0,1-3.26,1.22c-4,1.2-7.91,2.53-11.94,3.49-4.82,1.13-9.71,1.94-14.58,2.88ZM104,318.84l-.6.24c1.34,3.55,2.5,7.18,4.07,10.64,1,2.28,2.17,5,4.08,6.3a137.45,137.45,0,0,0,14.05,8,5,5,0,0,0,2.94.25c4.25-.69,8.54-1.24,12.68-2.34,7.06-1.87,14-4.09,21-6.22a5.59,5.59,0,0,0,2.08-1.34c8.13-7.8,16.23-15.53,19.2-27.1,1.07-4.19,1.26-7.95-.48-11.87s-3.32-8.17-5.17-12.17c-1.16-2.53-2.25-5.32-4.14-7.25-5.82-5.95-12.11-11.42-18-17.29a23,23,0,0,0-16.58-7,174.5,174.5,0,0,0-17.65,1.26,9.91,9.91,0,0,0-4.21,1.43c-3.73,2.33-7.41,4.77-11,7.36a17.62,17.62,0,0,0-7.43,11.95,39.32,39.32,0,0,0,1.2,18.65c3.37.26,4.19-2,5.46-4.23,1.49-2.61,3.21-5.82,5.67-7,5.38-2.53,11.2-2.69,16.48,1,3.84,2.69,7.28,5.6,7.31,10.89,0,5.11-2,9.56-4.31,13.9a9.45,9.45,0,0,1-3.11,3.76,22.91,22.91,0,0,1-7,2.61c-1.89.36-4.8.62-5.8-.44-3.79-4-7-8.6-10.42-13-.8-1-1.62-2-2.44-3.05l-.64.47c4.29,8,7.36,16.76,13.63,23.63,1.69,1.85,4,3.11,6.6,5.06.24,1.85-.56,3-3.22,3.26-3.61.41-6.19-1.69-8.55-3.89A82.62,82.62,0,0,1,104,318.84ZM128,292.75c-.26-3.12-2.89-3.95-4.44-5.54a6.45,6.45,0,0,0-7.3-1.75,9.88,9.88,0,0,0-5.3,7.15,4,4,0,0,0,.43,2.64c1,1.69,3.51,2.86,1.5,5.42-.11.14.27.76.51,1.08a32.51,32.51,0,0,0,2.48,3.11c2.22,2.3,5.94,2.19,7.45-.66C125.21,300.57,126.43,296.58,128,292.75Z"/><path d="M250,222.32c-.52,10-5.18,18-11.16,25.49-3.22,4-6.46,8.05-9.38,12.3-2.6,3.79-6.76,5-10.5,6.77-3,1.43-6.52,2-9.86,2.65-6.52,1.27-12.21-1-17.15-5-3.46-2.84-6.5-6.18-9.77-9.26-1.79-1.69-2.53-3.39-.85-5.64a3.26,3.26,0,0,0-.16-4.48c-4.76-5.9-6.46-12.86-6.39-20.3.07-7-.36-14.14,1.53-21.1,1.57-5.77,3.57-11.44,7.27-16.06,6.07-7.57,14-11.88,24.13-10.92a33.12,33.12,0,0,1,13.78,3.94c3.88,2.22,8.14,3.79,12.21,5.68,8.66,4,12.73,11.52,14.54,20.33C249.24,211.82,249.39,217.11,250,222.32Zm-57.28,32.84a11.36,11.36,0,0,0,.68,1c5,5.71,13.16,8.7,22.27,4.9,3.88-1.61,7.49-3.48,10-7.16,2.09-3.1,4.65-5.87,6.78-8.94,2.64-3.81,5.79-7.49,7.39-11.73,3.74-9.88,2.71-19.94-.71-29.81a19.36,19.36,0,0,0-10-11.61c-6.06-2.95-12.17-5.81-18.37-8.45a14.37,14.37,0,0,0-9.55-.5c-7.77,2.11-12.21,7.55-15.4,14.52-3.79,8.28-4.37,17.07-4.05,25.92a41.86,41.86,0,0,0,2.48,12.36,22,22,0,0,0,9.32,11.24l3.12-3.71a12.15,12.15,0,0,1-1.17-1c-2.09-2.34-5-4.36-6.1-7.09a26.19,26.19,0,0,1,.94-23.16c4.42-8.3,15.54-11.58,22.69-6.28,6.83,5.06,12.15,11.24,10.92,20.71-.1.74-.08,1.49-.11,2.24a20.75,20.75,0,0,1-13.3,18.21c-4.18,1.5-8.48,2.71-12.95,4.12C197.76,253.76,195.31,254.52,192.67,255.16Zm11.24-12.55c1.57-.48,2.91-.52,3.7-1.2,2.74-2.39,5.29-5,7.89-7.53a1.66,1.66,0,0,0,.34-.92c1.27-8.64-.49-16.2-7.78-21.81-4-3.07-7.16-2.64-10.16,1.52-3.11,4.32-3.37,9.2-3,14.31.37,4.48,2.62,7.84,5.64,10.78C202,239.08,204.3,239.48,203.91,242.61Z"/><path d="M182.69,515.85a21.69,21.69,0,0,0-.77-4.07c-2.6-6.67-5.2-13.33-8-19.91-6-14.17,2.12-31.41,12.63-38.19,6.55-4.23,13.65-5.44,20.88-6.8a83.85,83.85,0,0,1,11.37-1.49c7.56-.38,12.06,2.91,14.38,10.07,2.49,7.68,3,15.65,3.67,23.61.33,4.15,1.14,8.27,1.18,12.41a77.23,77.23,0,0,1-1,14.35,80.18,80.18,0,0,1-4.27,14.51,13.8,13.8,0,0,1-4.58,5.43c-5.87,4.44-12.35,7.64-19.93,5.32a63.18,63.18,0,0,1-13.2-5.67c-4.54-2.64-8.59-6.11-12.85-9.23Zm7.09-18c-1.25-5.09-2.76-9.84-3.52-14.7s0-9.63,4.3-12.83a27.89,27.89,0,0,1,7-3.7c10.08-3.68,17,.26,19.33,7.89,2.41,8.06,3.21,16.61,4.48,25,.59,3.92-1.73,6.43-5.11,8-6.92,3.19-13.9,2.78-20.88.21-2.51-.92-5-1.86-8.12-3,2,5.2,4.25,9.1,8.34,11.6,4.87,3,8.75,7.65,15,8.23,8.4.76,15.18-1.57,17.65-10.75A70.33,70.33,0,0,0,230.43,494a113.47,113.47,0,0,0-.87-13.17c-1-7.34-2.07-14.68-3.56-21.92-1.12-5.42-3.71-7.77-7.91-7.28-6.92.81-14,1.47-20.62,3.41-12.78,3.72-20,15.7-17.88,28.07,1,6.05,3.89,11.8,5.94,17.67,0,.1.27.13.41.18Zm9.46,3.51c3.42.58,6.62,1.45,9.84,1.58,4,.16,5.09-1.13,4.43-5.16-1-6-2.19-11.89-3.42-17.81a12,12,0,0,0-1.56-3.65c-3.16-5.2-6.76-6.07-11.85-2.79-1.1.72-2.53,1.87-2.69,3-.91,6.49.1,12.64,4.63,17.74C201.1,497,201.24,497.47,199.24,501.37Z"/><path d="M23.34,409.22C17,416.56,8.89,417,.21,416V403.39C2,405.14,3.76,407,5.67,408.58c2.16,1.81,4.73,1.31,7.13.62,2.07-.59,1.76-2.59,1.93-4.2.7-6.68-5.88-13.82-14.67-13a23.86,23.86,0,0,1,.07-4.15,2.39,2.39,0,0,1,1.57-1.61c2-.2,3.94-.08,6.19-.08a9.43,9.43,0,0,0-.57-1.87c-5.5-9-6.37-18.88-5.45-29.15a52.22,52.22,0,0,1,13.35-30.72c5.84-6.6,13.65-9.67,22.27-10.57A53.16,53.16,0,0,1,58,315.62c3.83,1.11,7.84,1.66,11.6,3,10.51,3.66,17.19,11.19,20.25,21.75a47.33,47.33,0,0,1,1.85,12.51c.07,6.55.22,13.27-1.14,19.6a211.23,211.23,0,0,1-8,26.75c-2.33,6.54-7.48,11.05-13.76,13.73-8.92,3.81-18,7.14-27.16,10.49a15.24,15.24,0,0,1-5.91.65,6.24,6.24,0,0,1-3.48-1.6c-1.34-1.22-.83-2.87.73-3.73a9.13,9.13,0,0,1,6.09-1.38,10.13,10.13,0,0,0,4.88-.74c6.31-2.36,12.48-5.08,18.83-7.32,8.08-2.85,12.11-9,14.33-16.71,2.83-9.82,5.89-19.57,6.37-29.93.32-7.12.31-14.1-1.86-21-2.87-9.11-8.51-15.68-17.72-18.5A119.66,119.66,0,0,0,45,318.82c-11-1.47-19.79,3.06-26.47,11.8-5,6.58-8.6,13.89-9.78,22.11a41,41,0,0,0,4.31,25.87Q17,385.83,21,393c3.54,6.25,8.53,11.26,14.15,15.63.69.54,1.91.39,2.88.59s2.4.16,2.79.76a3.27,3.27,0,0,1-.31,2.9A7.86,7.86,0,0,1,28.58,414C26.93,412.37,25.15,410.86,23.34,409.22Z"/><path d="M255.08,68.4a18,18,0,0,1-11.28,1.13,11.84,11.84,0,0,1-4.69-2c-1.8-1.34-1.53-3.62.58-4.32a13.11,13.11,0,0,1,6-.49c3.73.63,7.33-1.28,7.68-5.07a98.6,98.6,0,0,0,.32-14.17c-.1-1.92-1.28-3.92-2.38-5.62s-2.64-3.34-5.16-2.65A6,6,0,0,0,241.92,40a19.46,19.46,0,0,0-.4,7.16c.58,3.63,1.79,7.15,2.71,10.72.11.44.22,1.25,0,1.37a15.09,15.09,0,0,1-4.55,2.25c-.76.14-2.17-1.08-2.67-2-2.38-4.48-4.8-9-4.69-14.3a19,19,0,0,1,5.5-13.29c3.87-4,12.62-4.25,17.54-1.17,6.09,3.81,7.93,9.55,7.95,16.22,0,2.64-.26,5.29,0,8.07a15.88,15.88,0,0,0,1-2.84c1.15-8.31,1.43-16.62-1-24.76-2.57-8.81-7.08-12.17-16.26-12-7.33.14-13.73,2.68-18.15,8.84-2.58,3.61-3,7.93-2.87,12.2.28,9.24.51,18.5,4.42,27.17,1,2.22-.43,4.19-3.44,5.31-2.15.8-3.4.15-4.5-2.17-4.72-10-4.71-20.66-4.6-31.35.05-5.63,1.36-10.89,5-15.36,2.45-3,5.27-5.53,9-6.73,4.41-1.4,8.76-3.42,13.28-3.94a28.09,28.09,0,0,1,19,4.74,17.79,17.79,0,0,1,7.85,11.71c1.8,9.25,2.26,18.71.23,27.81-1.19,5.31-4.67,10.21-7.65,15-1.71,2.72-4.37,4.9-6.8,7.11-3.72,3.38-8.35,3.92-13.12,3.52-4.56-.38-9.1-.93-13.65-1.45a4.93,4.93,0,0,1-2.38-.65c-1.26-1-2.91-2.1-3.29-3.46-.44-1.58,2.19-3.45,4.44-3.25,4.38.4,8.73,1.09,13.09,1.6q2.85.33,5.72.44C251.74,72.64,253.64,70.91,255.08,68.4Z"/><path d="M583,193.69c6-3.08,11.76-6.65,18-9.07a28.69,28.69,0,0,1,12.46-1.56c7,.59,13.92,2.39,19.56,6.84a105,105,0,0,1,11.26,10.87,10.31,10.31,0,0,1,2,4.78c1.57,7.28,1.33,14.61-2.62,21-2.25,3.61-6.11,6.23-9.31,9.23-4.78,4.48-11.13,5.78-16.9,8.28-3.61,1.58-7,3.64-10.66,5.17-1.37.58-3.63.95-4.6.23-3.93-2.91-8.83-3.34-13-5.59-.65-.35-1.5-.55-1.92-1.08-6.77-8.41-12.57-17.35-13.08-28.55a24.4,24.4,0,0,1,7.48-19.14c.47-.46.91-1,1.38-1.44Zm4.92,29.41a23.15,23.15,0,0,1-1.91-3.58c-2.19-6.84-2.57-11,3.38-15.47,5.14-3.84,10.69-4.46,16.76-3.51a11.14,11.14,0,0,1,9.47,10.57c0,2.58.11,5.15.24,7.72.23,4.91-3.63,10.26-8.45,10.69-5.1.45-10.26.17-15.4.21-1.15,0-2.31,0-3.87,0,3.5,5.61,6.25,10.63,13.32,11.38,3.38.36,6.08.26,8.95-1.45a27.73,27.73,0,0,1,7.41-3.4c5-1.2,8.84-4,12.69-7.1,6.94-5.64,8.46-13.13,7.42-21.33-.8-6.3-5-10.77-10.15-13.87-8.44-5.13-17.39-7-26.72-1.84-2.77,1.53-5.74,2.66-8.54,4.13-3.36,1.76-6.26,4-8,7.58-3.46,7-2.6,13.86.3,20.72.11.25.49.38.84.65Zm7.82.59c2.79,0,4.86,0,6.93,0,1.74,0,2.53-.92,3.31-2.43,1.76-3.42.36-6.9.6-10.34.22-3.15-1.82-5.3-4.91-4.78a16,16,0,0,0-6.84,3.06c-2.86,2.21-2.27,8.25.73,10.31C597.16,220.64,598.29,221.65,595.73,223.69Z"/><path d="M83.79,505.22c-5.34-7.8-6.86-17.33-6.28-27.06.34-5.64,2.3-11.18,3.51-16.76.28-1.3.44-2.63.76-3.91,2.12-8.53,6.06-16.16,10.6-23.68,4.23-7,11.19-7.87,17.79-9.37,7.47-1.69,15,0,22.14,2.28,4.42,1.39,8.42,4.26,12.45,6.73,6.64,4.08,11.56,9.93,16,16.25,5.72,8.15,5.94,16.93,2.93,26a290.3,290.3,0,0,1-16.09,38.67c-1.37,2.73-4.13,4.93-6.64,6.88a83.92,83.92,0,0,1-11.35,7.57c-7.29,4-14.89,3.06-22.19,0a84.2,84.2,0,0,1-19.71-11.15c-3.19-2.52-3.87-6.45-5.7-9.72C81.82,507.57,82.92,506.5,83.79,505.22Zm7.09,5.7a13,13,0,0,0,2,1.8c6,3.49,12,7.07,18.17,10.34,6.36,3.38,12.39,2.14,18-2.08.73-.55,1.43-1.15,2.18-1.66,5.77-3.9,10.56-8.55,12.8-15.43,1-3,2.65-5.75,3.76-8.7,3.37-8.95,6.85-17.86,9.78-26.95,1.26-3.9,1.6-8.31-.46-12.21a60.35,60.35,0,0,0-6.09-9.7c-8.28-10.33-18.87-16.38-32.4-16.54-7.36-.09-14.32,1.64-19.27,7.18a37.43,37.43,0,0,0-6.94,12.27C90,456,88.56,463,86.68,469.91a46.65,46.65,0,0,0,.58,25.64c1.17,4.06,2.65,8,6.89,10.23.95.49,1.34,2.08,2.17,3.46Z"/><path d="M696.6,232.7c1-4.09,1.91-7.63,2.76-11.18a8.17,8.17,0,0,1,5.89-6.41,23.7,23.7,0,0,1,12.78-.83,6.84,6.84,0,0,1,5.67,5.85c1.54,7.24-.42,13.69-4.36,19.69-1.56,2.36-5.83,3.71-9.06,2.55a35.39,35.39,0,0,1-6.26-3.43c-1.44-.88-2.75-2-4.11-3-2.77,3.69-5.64,4.17-9,1.76-2.51-1.79-5-3.61-7.43-5.5a13.36,13.36,0,0,1-3.93-15.67c3.41-8,10-12.89,17.31-16.58,11.27-5.71,23.45-7.18,36-5.73a79.35,79.35,0,0,1,9.61,1.49c9.62,2.38,14.2,10.59,11.6,20.11-4.28,15.67-14.52,26.61-27.74,35.19a16.59,16.59,0,0,1-11.49,2.52c-8.24-1.08-16.59-1.95-24-6.08a129.36,129.36,0,0,1-11.2-7c-1.36-.94-2.21-2.61-3.19-3.83,2.72-3.14,5-2.34,7.51-.78,2.95,1.86,6,3.63,9.06,5.24,6.83,3.56,14.31,5,21.83,5.81,5.18.54,9.41-2.61,13.23-5.72,8.46-6.91,14.15-15.81,17.74-26.07a25.28,25.28,0,0,0,.94-5.15c.61-5-.43-6.55-5.41-7.89a54.5,54.5,0,0,0-19.31-1.79c-7,.66-14,1.66-20.16,5.23a61,61,0,0,0-12.4,9.5c-4.7,4.72-3.9,9.51,1.45,13.54C692.59,229.92,694.43,231.16,696.6,232.7Zm19.19-7.79c-.69-1.86-1.26-4.46-1.71-4.44-2.11.09-5.15.26-6.07,1.61a17.23,17.23,0,0,0-2.43,8.42c-.06,1,2.52,2.14,3.89,3.21.33.26.71.45,1,.72,1.12,1,2,.72,2.47-.57C714,230.85,714.89,227.79,715.79,224.91Z"/><path d="M508.67,466.38c0,2.41.14,4.84,0,7.24-.6,9.29-5,16.94-10.61,24a12.4,12.4,0,0,1-4,2.93c-4.25,2.28-8.59,4.39-12.86,6.63a5.87,5.87,0,0,0-1.74,1.67c-1.95,2.52-3.51,2.72-6.05.64-1.61-1.31-3.19-2.68-4.83-4-4.31-3.38-8.74-6.62-13-10.1-8.21-6.75-16-14.18-19.76-24.23-5.28-14.13-5.93-28.23,3.93-41.26,3.89-5.14,7.87-10.14,13.12-13.89,4.74-3.37,10-5.44,16-3.87a28,28,0,0,1,12.29,6.73,170.61,170.61,0,0,1,21.75,25.3,29.87,29.87,0,0,1,5.84,20.65c-.05.5,0,1,0,1.5Zm-34.33,32.21c5,2.41,9.07.42,13-2.1,1.68-1.07,3.4-2.09,5.1-3.13a17.78,17.78,0,0,0,6.4-7.46c3-5.84,2.42-12.07,2.75-18.29.39-7.49-2.27-13.81-6.49-19.43-6-8-12.14-15.87-19.83-22.28a53.46,53.46,0,0,0-10.83-6.43c-2.62-1.29-5.44-.63-7.71,1.27-2.67,2.24-5.34,4.5-7.78,7-12.3,12.56-11.69,29.44-5.44,41.63a52.18,52.18,0,0,0,14.84,17.3c1.11.87,2.13,1.89,3.76.75.32-.23,1.81.39,1.91.82,1,4.4,5,4.36,8.09,5,3.31.7,3.66.63,2.78,3.93A11.57,11.57,0,0,1,474.34,498.59Z"/><path d="M567.37,370.67c-5.14,0-10.29.1-15.42,0-2.64-.08-5.65.12-7.81-1.06-3.63-2-7.9-2.95-10.78-6.32s-6.57-6.09-8.73-9.79-3.12-8.06-4-12.27c-1.5-7.67-2.83-15.39-3.61-23.15-.75-7.48-.44-15,4-21.62a20.85,20.85,0,0,1,11-8.52c10-3.36,20.1-5.13,30.69-3.55,14.11,2.1,25.14,8.74,32.36,21.22,6.07,10.5,8.62,22.11,8.87,34,.12,5.87-2.42,11.79-3.82,17.67a3.7,3.7,0,0,1-1.1,1.65c-5.93,5.37-11.9,10.66-20.5,11.14-3.73.21-7.44.59-11.16.9Zm2.73-6.82c4.81.35,11.19,0,16.92-3.08,2.59-1.39,5.4-3.6,6.56-6.14a32.31,32.31,0,0,0,3-12.73c0-5.23-1.2-10.51-2.29-15.69a58.65,58.65,0,0,0-7.25-19c-5.78-9.3-14-15-24.87-16.68-8.45-1.3-16.61.09-24.89,2.26-8.08,2.12-12,7.08-12.64,14.68-1.26,14.39,1.22,28.39,6,41.94,1.71,4.87,6.29,7.63,10,10.95.92.82,1.84,2,2.93,2.21a53.83,53.83,0,0,0,9.28,1.28C558.07,364,563.29,363.85,570.1,363.85Z"/><path d="M10.83,512.85c-7.13-7.17-9.06-17.15-4.22-24.53S18.38,477,27.38,477.14a53.39,53.39,0,0,1,21.14,4.34c5.11,2.28,8,6.65,9.42,11.92,2.46,9.09,1.39,18.16-.39,27.2a25,25,0,0,0-.53,2.95C56.1,536,41.64,541.44,33.08,538.72c-4.58-1.45-9.33-2.56-13.63-4.59-6.8-3.22-11-8.87-13.17-16.13-.61-2.07.5-3.13,1.91-4.06A16.33,16.33,0,0,1,10.83,512.85ZM15.37,505c1.4-3,2.67-6,4.05-8.83s3-5.22,6.48-6,6.18.6,9,2c5.87,2.9,7.4,6.07,6.19,12.52-.46,2.45-.72,4.94-1.26,7.37a3.56,3.56,0,0,1-1.52,2.35,10.43,10.43,0,0,1-5,.95c-3.87-.57-7.67-1.6-11.31-2.4a8.18,8.18,0,0,1-1.78,2c-2,1.21-4.21,1.89-6.26-1a13.51,13.51,0,0,0,4.63,10.62c5.42,5.07,12.27,6.89,19.28,8,3.77.62,9.8-3.2,10.42-6.4,1.94-10.06,3.8-20.16,1.55-30.45-1.12-5.15-3.54-9.13-9.16-10.31-3.26-.69-6.46-1.69-9.74-2.2-9.22-1.41-15.41,2-18.36,10A10.79,10.79,0,0,0,15.37,505Zm16.68,3.35c.25-2.07.5-4.09.72-6.12.31-2.8-1.35-4.36-3.65-5.3a2.3,2.3,0,0,0-2.13.68C24.36,502.7,25.31,506.73,32.05,508.38Z"/><path d="M219,171.48c1.28-3,3.67-3.82,6.43-4.16,1.56-.2,3.09-.7,4.66-.85a75.43,75.43,0,0,1,9.36-.61c6.6.18,12.06-2.09,15.68-7.54,4.1-6.16,5.58-13.29,6.12-20.61.39-5.3,1-10.6,1.2-15.92.43-12.57-3.83-23.27-13.83-31.13-3.74-2.93-8.59-2.12-13.06-1.7-4.69.45-8,3.39-10.58,6.91a43.53,43.53,0,0,0-8.48,33.21,103.83,103.83,0,0,0,8.4,28.15c.83,1.85,1.55,3.78,4.29,3.18.44-.1,1.51.57,1.5.85,0,.75-.3,1.88-.83,2.16a51.68,51.68,0,0,1-7,3.11c-1.68.59-3-.44-3.58-2-1.56-3.85-3-7.75-4.47-11.64a100.94,100.94,0,0,1-6-24.67c-.59-5.32-.52-10.52,1.6-15.67,1.58-3.85,1.83-8.29,3.6-12,3.35-7.07,7.67-13.58,15.74-16.12,14.22-4.46,25.49-1.09,33.17,10.3,7,10.33,9.24,21.5,7.38,33.73-.61,4-.42,8.17-1,12.2a69.51,69.51,0,0,1-2.25,9.93c-2.88,10-9.53,16.74-18.81,21.06A14.87,14.87,0,0,1,238,172.72c-2.39-.57-5.28,0-7.73.78C226.1,174.81,222.37,174.84,219,171.48Z"/><path d="M23.22,158.92c-2.43-7.36-5.13-15-7.37-22.68-.73-2.52-.24-5.38-.35-8.09-.21-5.1.09-10.22,2.3-14.83a36.11,36.11,0,0,1,6.63-9.86c2.05-2,5.44-2.71,8.09-4.24,10.41-6,23-1.36,29.76,4.63a57.73,57.73,0,0,1,15.6,21.31,37.13,37.13,0,0,1,2.27,20.1,108.72,108.72,0,0,1-3.4,14c-2.12,7.21-7.84,10.59-14.54,12.24a141.26,141.26,0,0,1-15.53,2.4c-5.31.68-10.14-1-14.87-3.27-4.33-2.11-8.81-3.93-13.2-5.92a11,11,0,0,1-3.21-1.85c-.68-.66-1.45-2.17-1.14-2.72a4.16,4.16,0,0,1,2.87-2A36.38,36.38,0,0,1,23.22,158.92Zm7.38,2.68c8.69,6.25,16.47,7.3,27.26,4.45,6.13-1.61,9.83-5.18,11.62-11.29,6-20.38-.78-36-15.6-49.46-8.11-7.38-21.22-1.6-25.43,4.28-5.51,7.71-5.51,16.75-4.19,25.47.91,6,3.77,11.69,5.79,17.5.63,1.82,1.54,3.28,3.94,2.95a5.22,5.22,0,0,1,2.91.51,9.21,9.21,0,0,1,2,2,9,9,0,0,1-2,1.52C35,160.28,33,160.83,30.6,161.6Z"/><path d="M98.11,45.55,93.34,65.64a17,17,0,0,0-.48,1.69c-1,7.4-5.64,11.61-12,14.71-8.76,4.25-17.43,5-26.46.92C49.31,80.66,44,79.11,39.81,75c-4.33-4.26-7.63-8.8-8.38-15.12-.41-3.46-1.55-6.8-.31-10.27.27-.75.56-1.84,1.13-2.08C35,46.43,34.67,44.23,34.63,42c-.13-5.6.28-11.07,2.63-16.36,3.44-7.76,9.8-11.78,17.39-14.24,7.82-2.53,15.29-1,22.45,2.68S90.19,22.66,94,29.77A35.85,35.85,0,0,1,98.11,45.55ZM39.94,59c-.11,6.86,7,13.41,12.19,15.58a72.51,72.51,0,0,0,7.46,2.86c2.76.81,5.83,2.18,8.42,1.63a56.63,56.63,0,0,0,12.92-5A7.25,7.25,0,0,0,84,69.84c1.59-5.6,3-11.27,4.11-17,1.23-6.33,1.67-12.7-.84-18.93C84.68,27.41,79.69,23.17,74,19.48c-9.55-6.22-25.51-1.29-29.68,9.31-3,7.7-2,15.61-.54,23.39C44.56,56.24,44.16,57.64,39.94,59Z"/><path d="M554.19,413.31c1.16,10.63-3.2,18.77-9.51,26.13-3,3.46-5.55,7.28-10,9.26-5.51,2.47-15.45,1-19.77-3.18-1.78-1.71-2.1-4.12-1.15-6.61a7.35,7.35,0,0,0,.39-3.26c-.56-5.21-1.46-10.38-1.8-15.59a25.42,25.42,0,0,1,6-18.29c.16-.19.24-.47.44-.6,3.86-2.65,7-6.49,11.53-8,5.18-1.68,10.47-2.18,15.48.72a16.27,16.27,0,0,1,8.36,13.14A59.86,59.86,0,0,1,554.19,413.31Zm-14.62,20c7.87-8.69,8.23-18.64,5.28-29.08-1.26-4.45-4.34-6.33-8.94-5.56a18.07,18.07,0,0,0-13.31,9.52,16.59,16.59,0,0,0-2.43,9.22c.73-.4,1.24-.63,1.71-.93a13.63,13.63,0,0,1,16.28.46c3.46,2.54,4.41,5.13,3.34,9.26C540.89,428.54,540.21,430.9,539.57,433.27Zm-16.47,2.34c.1,1.77.13,3.45.32,5.1a1.93,1.93,0,0,0,.9,1.29c4,2.11,10.18-.07,12-4.48C531.45,439.34,527.14,437.93,523.1,435.61Zm7.86-5.44.87-.19c.31-1.34.7-2.67.92-4a4.73,4.73,0,0,0-4-5.38c-2.11-.34-3.25.76-2.31,2.64A70.52,70.52,0,0,0,531,430.17Z"/><path d="M655.25,365.37c-.23.81-.27,2.28-1,3.27a61.41,61.41,0,0,1-6.41,7.86,68.27,68.27,0,0,1-8.46,7c-4.34,3.09-9.43,3.79-14.64,4-3.56.16-6.25-1.92-9.21-3.25a2.73,2.73,0,0,1-1.71-3.58,5.35,5.35,0,0,0-.67-3.66c-4.58-8.11-4-21.86,2.06-28.87A57,57,0,0,1,627.11,338c9.07-5.93,13.47-3.82,19.5,4.39C651.43,349,653.87,356.75,655.25,365.37Zm-36.87-1.29c.18-.55.37-1.09.54-1.64a22,22,0,0,1,8.52-11.68c5.92-4.07,15.22.1,15.94,7.9a65,65,0,0,1-.16,8.71,3.13,3.13,0,0,1-.74,2.05c-2.65,2.33-4.88,5.27-8.67,6a5.11,5.11,0,0,0-4.12,4c2.67.34,4.66-.77,6.48-2.23,2.73-2.17,5.48-4.33,8-6.7a6.91,6.91,0,0,0,2.34-6.94c-1.55-7.28-4.77-13.8-8.71-20-1.65-2.6-3.74-3.23-6.38-1.39a52.51,52.51,0,0,0-8.93,7.47A16.28,16.28,0,0,0,618.38,364.08Zm16.86-.22a24.58,24.58,0,0,0-.84-4.34,24.69,24.69,0,0,0-2.23-3.66c-1.09.94-2.45,1.69-3.21,2.85-3,4.61-2.48,6.62,1.9,9.05,1.5.84,2.5.68,3.2-.84C634.56,365.83,634.93,364.67,635.24,363.86Zm-11.08,14.87a23,23,0,0,1,1.5-2.74c1.52-1.88.39-2.89-1.23-3.53s-3.46-1.08-5.83-1.8Z"/><path d="M129.24,45.78l6.4-3c.3-2.68.7-6,1.06-9.26.78-7.27,3-13.78,9.12-18.45,4.58-3.5,9.45-6.18,15.37-6.5,2.66-.14,5.3-.5,7.95-.8,9.42-1.07,18.25.47,26.16,6a13.68,13.68,0,0,1,5.59,7.1c2.39,7.33,1.74,14.39-1.2,21.41a50,50,0,0,1-15,20.41c-3.71,3-6.94,6.26-12,6.29-6,0-12.06.1-17.7-2.3a80.65,80.65,0,0,1-12.92-6.44c-3.1-2-5.54-5.14-8.08-7.95A78.14,78.14,0,0,1,129.24,45.78Zm9.86.82C145,57.23,161,63.37,170.55,62.27c2.53-.29,5.06-1.91,7.24-3.43a34.69,34.69,0,0,0,5.53-5.38A39.09,39.09,0,0,0,193.9,24.78c-.09-3.09-1.33-5.92-4.28-7.12-3.65-1.49-7.51-3.18-11.34-3.37a78.74,78.74,0,0,0-17.12,1.25c-8.4,1.46-14.26,6.32-16,15a59.27,59.27,0,0,0-.86,10.91C144.2,45.67,143.49,46.58,139.1,46.6Z"/><path d="M131.12,409.82c-8.4-11.7-10.94-24.64-9.32-38.68.57-4.93,3-7.83,7.47-9.59,11.46-4.54,23.21-5.9,35.24-3.07a33.61,33.61,0,0,1,9.61,4.06c6.43,3.88,8.89,10.6,7.14,18.47-1.36,6.1-2.55,12.26-4.45,18.19-1.41,4.39-3.83,8.46-5.84,12.66-.89,1.88-1.93,3.69-2.79,5.58-2.33,5.11-6.8,7-11.82,6.65a104.94,104.94,0,0,1-16.12-2.94,43.81,43.81,0,0,1-7.66-3c-3.57-1.58-4.26-4.41-2-7.56C130.82,410.32,131,410,131.12,409.82Zm-3.28-30.14a46.45,46.45,0,0,0,8.84,25.86c1.31,1.79,2.26,3.85,3.47,5.72.74,1.14,1.48,2.75,2.55,3.1A140.84,140.84,0,0,0,156.39,418a4.5,4.5,0,0,0,5.2-2.56c5.91-11.34,10.85-23,12.28-35.87.76-6.76-1.41-11.52-7.82-13.85a46.79,46.79,0,0,0-11.39-2.34,45.5,45.5,0,0,0-22.47,3.4,4.77,4.77,0,0,0-3.28,4C128.55,373.75,128.19,376.72,127.84,379.68Z"/><path d="M467.62,525.92c-1,8.82-5.49,15.54-12.41,20.93a19.13,19.13,0,0,1-13.57,4,113.69,113.69,0,0,1-18.1-3.44c-4.16-1-8.39-2.38-11.36-5.87-6.18-7.25-11.15-18.92-5.37-30.36,6.07-12.05,15.6-18,28.27-19.73,7.06-1,13.37,1.38,18.56,6.22a69,69,0,0,1,9,9.68,27.13,27.13,0,0,1,3.71,8.85C467.13,519.29,467.2,522.59,467.62,525.92Zm-56.83-4.48A21.71,21.71,0,0,0,416,534.19a11.83,11.83,0,0,0,4.52,3.35c4.12,1.51,8.45,2.45,12.6,3.89s8.46.2,12.55,1.63c.8.28,2.1-.46,3-1a24.42,24.42,0,0,0,9.81-9.7c1-1.89,2.28-3.93,2.34-5.93.23-7-1.55-13.36-7.34-18-2.39-1.93-4.64-4.07-7.17-5.8-3.52-2.41-7.48-3.9-11.79-3.1A59.89,59.89,0,0,0,424,502.46C417.05,505.11,410.77,514,410.79,521.44Z"/><path d="M485.35,338.61a27,27,0,0,1,25.24,19.31,33.52,33.52,0,0,1,0,21.34c-2.88,8.49-8.27,14.65-17.4,16.42a24.2,24.2,0,0,1-9.13-.21c-7.82-1.58-15.58-3.51-23.32-5.42-2.81-.69-4.55-3.08-2.12-6.11a4.08,4.08,0,0,0,.61-3c-1.64-7.42-3.3-14.79-1.3-22.44,2.18-8.37,6.75-14.55,15.4-17C477.29,340.39,481.34,339.57,485.35,338.61Zm18.76,31.22c-.05-1,0-2-.14-3-.68-6.15-2.91-11.67-7.39-16-6-5.82-18.58-6.66-25.33-1.52a15.76,15.76,0,0,0-4.89,6.68c-3.67,9.69-1.67,18.81,3.77,27.33a3.69,3.69,0,0,0,2.08,1.5c5.84,1.3,11.68,2.66,17.58,3.64,4.38.72,8-1.06,10.57-4.72A20.89,20.89,0,0,0,504.11,369.83Z"/><path d="M32.42,389.32C26.52,387,22,383,18.07,378.1S12,368,12.86,361.36C14.3,350.71,18.5,342,28.25,336.87c9.45-5,19-1.62,24,8,4.29,8.26,6,17.4,6.2,26.57.17,6.45-2,12.47-8.52,15.78-3.92,2-7.64,4.33-11.54,6.33a7.33,7.33,0,0,1-3.85.63C31.38,393.83,30.57,391.93,32.42,389.32Zm6.73-3.14c8.5-3.18,10.85-5.8,10.38-15.08a66.33,66.33,0,0,0-5.73-22.88,17.86,17.86,0,0,0-4.11-5.53,6.59,6.59,0,0,0-9.06-.56c-9.88,7.77-15.27,24.55-1.23,36.15a27.58,27.58,0,0,0,7.18,4.37C38.37,383.36,39.48,384,39.15,386.18Z"/><path d="M503.69,513.59c-.59-10,7.78-20.05,18.23-22.28,8.82-1.87,15.41,2.32,21.94,7.2,5.2,3.88,8.3,9.22,10.76,15,1.69,4,.77,7.94-1.08,11.57a33.79,33.79,0,0,1-21.47,17.71,3.75,3.75,0,0,1-2.28-.62c-1.29-.63-2.42-1.69-3.76-2.06C513.32,536.57,504.71,527.35,503.69,513.59ZM543,526.69l0,0a48.32,48.32,0,0,0,4-4c1.89-2.37,1.78-4.75.48-7.64-2.75-6.07-7.72-9.67-13-13-4.1-2.54-8.52-3.82-13.35-2.4-4.64,1.36-10.51,5.95-10.38,10.61.22,8,3,14.67,10.48,18.51,2.21,1.13,4.64,1.81,6.92,2.8.85.37,2,.91,2.26,1.63.7,2,2.08,2,3.29,1.12C536.82,531.94,539.85,529.27,543,526.69Z"/><path d="M706.36,504.9c-.33,2.22-.69,5.27-1.24,8.29-.79,4.27-4.27,6.64-7.1,9.38a66.37,66.37,0,0,1-6.59,5.17,4.48,4.48,0,0,1-2.19,1.06,2.79,2.79,0,0,1-2.08-.91,11.91,11.91,0,0,1-1.6-3.33,3.17,3.17,0,0,1,0-2.25,2,2,0,0,1,1.89-.54c3.15,1.43,4.3-1,6.08-2.7,5.07-5,6.52-10.77,5-17.55-2.71-11.83-13.38-18.26-22.76-19.62-3.92-.57-5,.33-5.91,4.28-1.85,8.17.86,15.13,6.1,21.2a53.39,53.39,0,0,0,6.93,6,3,3,0,0,0,2,.58c2-.15,2.66.73,2.21,2.51a11.84,11.84,0,0,1-1.4,3.91c-2,3-3.65,3.3-6.59,1.36-10-6.63-16.72-15.48-17.37-27.88A31.59,31.59,0,0,1,663,483.82c1.87-6.6,8.1-10,16.12-9s15.21,4,20.65,10C704.56,490.19,706,497,706.36,504.9Z"/><path d="M.07,443.72c0-6.25-.09-12.5.07-18.74a5.83,5.83,0,0,1,1.62-3.3A14,14,0,0,1,5,419.37c5.49-3.33,10.93-4.06,16.6-.19a85.17,85.17,0,0,0,10,5.7c7.93,3.95,10.69,11,12.46,19.06,1.34,6.08-1.28,10.95-4.19,15.38-1.83,2.8-5.6,4.69-8.88,6.13a45,45,0,0,1-19,3.47c-4-.07-7.42-1.76-10.7-3.74a3.66,3.66,0,0,1-1.11-2.71C0,456.22.07,450,.07,443.72Zm5.15-6.58a4,4,0,0,0,1.08.08c1.76-.62,2.94.3,3.76,1.62s.06,2.4-1,3.48a3.47,3.47,0,0,0-.57,2.58c.43,2.89-.23,4.12-2.9,5.23a3.09,3.09,0,0,0-1.71,1.46c-1.81,5.82-1.33,6.86,4.37,9.21a10.33,10.33,0,0,0,4.34.92,87.36,87.36,0,0,0,12.11-1.26c7.79-1.57,12-7.69,10.54-15.45-.85-4.56-2-9.36-6-12.27-4.35-3.16-9.19-5.67-13.74-8.58a5.09,5.09,0,0,0-5.82-.11,44.48,44.48,0,0,0-5.31,3.69,3.26,3.26,0,0,0-1,2.56C3.86,432.64,4.62,434.92,5.22,437.14Z"/><path d="M783.68,536.2a37.08,37.08,0,0,1-6.87-.69c-3-.8-4.51-3.49-5.4-6.34a57.3,57.3,0,0,1-2.65-14.6,8.47,8.47,0,0,0-1.39-3.85c-1.11-1.79-1.27-3.55.57-4.55,3.55-1.91,7.15-4,11-5a78.88,78.88,0,0,1,15.23-2.26c4.4-.25,8,1.79,9.5,6.25a116,116,0,0,1,4.59,15.75c.33,1.78-1.64,4.27-3.07,6C799.86,533.37,792.66,535.93,783.68,536.2Zm2.4-8.52c4.79-.37,9.69-1,14.11-3.72a2.31,2.31,0,0,0,1.27-2.82,32,32,0,0,0-5.62-12.39,5.62,5.62,0,0,0-6-2.59c-4.06.84-8.16,1.54-12.11,2.76-3.44,1.05-3.55,2.07-2,5.33.77,1.64,1.4,3.2.66,5.35-1.38,4.06.34,6.63,4.32,7.4C782.38,527.33,784.13,527.44,786.08,527.68Z"/><path d="M799.28,159.79c5,.29,8.5,1.93,10.7,5.85a3.53,3.53,0,0,1,.57,2.09c-1.3,8-2.17,16-6.29,23.2-2.83,4.95-6,6.76-11.69,5.78a17.93,17.93,0,0,1-12.09-7.25c-1.22-1.72-1.67-3.38-.17-5.22a4.25,4.25,0,0,0,.61-2,37.82,37.82,0,0,1,5.72-16.56C789.72,161,795,160.8,799.28,159.79Zm2.83,7.08c-7.1.3-11.46,5.19-12.06,13.38l2.68-.73c-.36-1.84-.65-3.42,1.41-4.51,3.05-1.61,3.88,1.51,6.07,2.71C800.86,174,801.46,170.57,802.11,166.87ZM798,182.15l-3.36-1.5-3.22,8.27C794.8,190.07,796.24,187.5,798,182.15Z"/><path d="M236.29,110.17c5,.6,9.29.38,12.44,3.77,3.83,4.12,5.19,14.47,2.62,19.4-2.79,5.34-10.68,9.43-16.85,8.68a67.86,67.86,0,0,1-6.8-1.12,2.93,2.93,0,0,1-1.92-1.52c-1.73-5.55-3.55-11.08-4.85-16.73-.87-3.81,2.62-8.84,7-10.42A71,71,0,0,1,236.29,110.17Zm8.29,17.72-.56-.32c-.24-1.89-.34-3.82-.76-5.67a7.43,7.43,0,0,0-12.42-4.07,4.76,4.76,0,0,0-1.61,3.37c.43,5.37,2.13,10.21,6.75,13.58,1.85,1.35,3.72,1.54,5-.28A53,53,0,0,0,244.58,127.89Z"/><path d="M693.22,497.91c.54,7.86-8.47,10.72-13.61,8.53a2.82,2.82,0,0,1-1.24-.79q-2.76-4.06-5.39-8.2c-2.58-4-2.59-6.85-.15-9.58,3-3.39,6.85-4.38,10.73-1.94a43.49,43.49,0,0,1,8.4,7.3C692.93,494.27,692.83,496.32,693.22,497.91Zm-12.57-3.5c1.19,3.43,2.26,4.58,3.81,4.12Z"/><path d="M2.93,402.56c.13-1.67,2.24-2.95,4.94-3.31,2-.28,3.22.34,3.35,2.42.13,1.85-2.56,3.81-5.07,3.81C4.19,405.48,2.8,404.22,2.93,402.56Z"/><path d="M543,526.69c-2.33,1.19-4.57,2.77-7,3.43-1.42.38-3.32-.52-4.85-1.2a38,38,0,0,1-5.17-3c-3.43-2.2-4.69-5.37-4.19-9.39.57-4.65,3.57-7.14,7.61-8.58a6.26,6.26,0,0,1,3.63.29,66,66,0,0,1,8.63,3.19c1.09.52,1.89,1.94,2.5,3.12a10.78,10.78,0,0,1-1.1,12.14Zm-13.63-8.84,7.92,4.32C537.19,518.77,534.58,517.36,529.33,517.85Z"/><path d="M787.1,391.22c-5.43.6-7.57-3.72-10.27-6.92A11.28,11.28,0,0,1,775,372.35c1.73-4.53,3.16-9.4,8.44-11a14.85,14.85,0,0,1,7.23-.5c8.89,2,13.6,9.41,12,18.33-.29,1.64-.7,3.26-.91,4.91a6.5,6.5,0,0,1-5.73,6C793.07,390.63,790.07,390.85,787.1,391.22Zm7.32-13.53c0-4.78-2.48-8.81-6.23-10.19-1.35-.5-2.36-.31-2.9,1a50.81,50.81,0,0,0-2.91,7.88,5.56,5.56,0,0,0,4.9,7C794.7,384.5,793.94,383.62,794.42,377.69Z"/><path d="M219.25,350.22c5.73-.12,12.52,4.95,14.85,11.24a84.59,84.59,0,0,1,3.21,10,4.49,4.49,0,0,1-1.16,3.73c-4.34,3.71-8.56,7.78-13.5,10.47-3.19,1.73-7.55,1.46-11.41,1.77-1.78.14-3.61-.7-5.42-.75-4.55-.12-5.65-3.91-4-7.18a7.2,7.2,0,0,0,.42-6c-.36-1-.46-2.13-.89-3.12-3-7,.72-12.27,5.15-15.67A27.52,27.52,0,0,1,219.25,350.22Zm-10.46,28.91A17.5,17.5,0,0,0,227.72,374a2.75,2.75,0,0,0,.51-2.21c-1.12-3.22-2-6.63-3.73-9.51-4.2-7-7.41-6.77-12.76-3.18a14.29,14.29,0,0,0-1.4,1.06,5.41,5.41,0,0,0-1.9,5.82c.62,2.16,1.26,4.32,2.08,6.41C211.81,375.66,211.61,376.76,208.79,379.13Z"/><path d="M468,113.36c3.74,0,7.6-.56,11.18.19,2.53.52,5,2.48,6.92,4.42,3.84,4,7,8.41,8.05,14.09.39,2.06,1.61,4,2.41,5.95a4.07,4.07,0,0,1,.39,1.66c-.23,5.46-1.3,11-5.41,14.61-3,2.61-7.22,3.87-11.06,5.33a66.14,66.14,0,0,1-9.58,2.52,8.53,8.53,0,0,1-3.55-.16c-2.56-.61-5-1.66-7.63-2.06-3.46-.54-4.23-1.69-2.79-4.79a2.31,2.31,0,0,0-.43-2.07c-5.55-5-8.46-11.63-10-18.6-.77-3.4.56-7.33,1.21-11a12.36,12.36,0,0,1,2-4.78,7.65,7.65,0,0,1,3.67-3c4.8-1.29,9.71-2.15,14.58-3.18Zm1.41,5.2v-.74c-3.72.68-7.46,1.3-11.17,2.11a3.1,3.1,0,0,0-2.06,1.54c-.83,2.58-2,5.28-1.9,7.88.57,11.63,7.16,19.46,16.83,25.09a2.7,2.7,0,0,0,1.69.22,69.85,69.85,0,0,0,9.5-1.95,7.83,7.83,0,0,0,4-3.45,11.82,11.82,0,0,0,.83-10.32c-1.28-3.25-2.11-6.7-3.66-9.81C480.59,123.39,477.5,117.64,469.42,118.56Z"/><path d="M510.86,169.6c.4.51,1.58,1.39,1.8,2.46.36,1.69-1.55,3.44-3.28,3.13-1.25-.22-3.24.13-3.13-2.17C506.34,171,507.93,169.52,510.86,169.6Z"/><path d="M389.34,98.73c13.23.9,20.51-12.32,15-24.33-1.92-4.21-6.71-5.63-11.57-3.79-3.83,1.46-6.56,6.4-5.17,10.45,1.07,3.09,3,5.9,4.59,8.77.87,1.55,2.08,3,.54,4.72-1.3,1.45-4.69,1.57-6.27.36-5.91-4.57-8.64-13.69-6.17-20.73s7.88-10.22,15-10.75c12.31-.92,20.45,7.88,19.33,20.86-.9,10.28-7.1,17.28-16.88,19.85a28.2,28.2,0,0,1-7.34,1.23,16.46,16.46,0,0,1-6.05-1.68c-.79-.35-1.83-2.13-1.62-2.42a7.41,7.41,0,0,1,3.11-2.46C386.88,98.42,388.17,98.73,389.34,98.73Z"/><path d="M451.84,264.63c9,0,14.22,5.32,17.77,12.72a80.9,80.9,0,0,1,4.33,11.41c1,3.37-.8,6.5-2.86,8.6-4.85,4.93-10.82,8-18,7.74a4.26,4.26,0,0,1-2.7-1,6.88,6.88,0,0,1-1.95-3.48c-.09-.55,1.44-1.7,2.4-2,1.89-.51,3.91-.48,5.84-.87a35.15,35.15,0,0,0,6.44-1.73,3.88,3.88,0,0,0,2.28-5c-2.05-5.9-4.66-11.55-8.85-16.33-3.1-3.54-7.1-4.11-11.39-3.55-3.39.44-4.57,2.23-4.06,5.59a21.54,21.54,0,0,0,5.38,11.61c1.34,1.44,3.5,2.14,5.31,3.14,2.82,1.57,2.92,3.69.22,5.46a9.07,9.07,0,0,1-11.81-2c-3.08-3.89-5.94-8-6.88-13.11-1.52-8.28-.07-11.6,7.75-15,3.37-1.44,7.11-2,10.68-3Z"/><path d="M533.09,240.53c1,5.06-1.57,8.79-4.87,11.94-2.32,2.22-5.48,1.92-8.53,1.26a7.33,7.33,0,0,0-3.48.2c-2.3.7-3.72.07-4.79-2.18-2.9-6.09-2.52-12.35-.76-18.55,1.09-3.83,4.44-5.43,8.08-5.7,4.4-.33,8.77.31,11.84,4a12.42,12.42,0,0,1,2.15,4.57A22,22,0,0,1,533.09,240.53Zm-15.81-.84c-.09,4.38-.09,4.38,3.7,5.69a4.37,4.37,0,0,1,.9.43c1.64,1,2.5.15,2.45-1.34a28,28,0,0,0-1-8.06c-.4-1.11-2.72-1.64-4.27-2.12-.22-.06-1.18,1.66-1.48,2.65A11.39,11.39,0,0,0,517.28,239.69Z"/><path d="M129.39,168.77l5-2.76c-11.15-6.64-15.6-21.76-13-34.21,2.54-12.09,14.19-18.82,26-14.73,9,3.13,16.64,8.21,20.27,17.56a31.34,31.34,0,0,1,1.56,17.42,2.08,2.08,0,0,1-.21.72c-4.91,7.85-9.59,16-20.08,17.36-3.88.51-7.77.89-11.65,1.41C134.35,171.93,131.73,171.65,129.39,168.77Zm15.44-4c6.24.13,16-9.56,16.11-16.14.26-12.59-5.52-21.35-17.12-26a10,10,0,0,0-13.37,5.89c-3.79,10.31-1.21,19.6,4.81,28.27a8,8,0,0,0,7.66,3.74c1-.09,2.16.78,3.24,1.21Z"/><path d="M593.15,427.78c5.62.17,8.72,1.32,10.31,5.28,1.11,2.77,2.66,5.36,4,8.05,1.43,2.88.38,5.93-3.18,8.8a33.74,33.74,0,0,1-12.73,6.69,11.28,11.28,0,0,0-2.94,1.27c-2.52,1.57-4.58.82-5.58-2a14.09,14.09,0,0,0-1.6-3.23,21.89,21.89,0,0,1-3.53-15.39c.41-3.26,3.29-4.6,5.74-5.8A97.08,97.08,0,0,1,593.15,427.78Zm0,7c-2,.48-3.53.59-4.81,1.24-1,.5-2.43,1.82-2.3,2.52a60.25,60.25,0,0,0,2.63,9.5,2.79,2.79,0,0,0,2.5,1.16,52.3,52.3,0,0,0,6.31-2.84c1.56-.76,1.88-1.93,1.06-3.49-1.08-2-2-4.19-3.2-6.17A9,9,0,0,0,593.18,434.81Z"/><path d="M30.26,237.43a25.12,25.12,0,0,1-3.83-22c1.06-3.89,7.37-7.26,12.27-6.89,7.71.58,13.16,4.62,16.74,11.35.27.51.49,1.06.77,1.57a10.88,10.88,0,0,1-.52,12.41c-1,1.47-1.28,3.44-2.34,4.85-2.53,3.38-6.36,4.84-10.3,5.54a36.62,36.62,0,0,1-9.7.33,7.23,7.23,0,0,1-4.25-2.54C27.62,240.32,28.24,238.61,30.26,237.43Zm8.26,0c5.16.46,6.59-.35,8.79-5.31a7.33,7.33,0,0,0,.82-2.08c.14-1.36.48-2.93,0-4.08a26.2,26.2,0,0,0-4.12-7,17.27,17.27,0,0,0-5.77-3.68c-1.74-.8-2.94,0-3.36,2.06a21.37,21.37,0,0,0,1.8,14.29A40.68,40.68,0,0,1,38.52,237.4Z"/><path d="M676.16,293.79c4.92-.14,9.36,2.3,13.35,5.56a7.07,7.07,0,0,1,2.46,6.72c-.55,4.12-.53,8.33-1.23,12.41a20.46,20.46,0,0,1-2.81,7.59c-2.58,3.9-6.87,4.07-11,3.54a44.21,44.21,0,0,1-10.18-2.2,8.17,8.17,0,0,1-4-4.4c-3-7.88-2.16-15.72,1.37-23.24C666.28,295.09,669.07,293.84,676.16,293.79ZM683,307.05c.06-3.7-2-5.93-6.38-7.09-2.12-.55-3.67,0-4.49,2-2,5.06-3.35,10.24-2,15.77,1,4.33,1.57,4.85,5.94,5.25.33,0,.66.11,1,.15,3,.4,3.77.1,4.31-3C682.09,315.8,682.46,311.41,683,307.05Z"/><path d="M763.78,442.67c-.8,5.92-1.16,11.95-4.37,17.26-3.48,5.75-11.31,7.67-16.21,4a6.1,6.1,0,0,1-1.61-1.55,91.35,91.35,0,0,1-5.36-9.22c-3-6.45-1.67-12.89,1.06-19.05.64-1.44,2.34-2.62,3.81-3.45,5.33-3,11-4.21,16.65-1.19,4.3,2.3,5.33,6.76,6,11.2A13.34,13.34,0,0,1,763.78,442.67Zm-8.15.81a39.84,39.84,0,0,0-1.55-5.66c-1.37-3.16-4.13-4.29-7.13-2.62a7.61,7.61,0,0,0-3.39,4.22c-1.72,6.37.16,12.16,4,17.26,2.12,2.8,4.49,2.5,5.5-.83C754.31,451.9,754.8,447.74,755.63,443.48Z"/><path d="M679.85,397.2c-.11-5.31,2.82-8.06,6.62-10,3-1.52,6.15-.89,8.95.94,3.89,2.54,6.31,6.32,8.21,10.44a4.19,4.19,0,0,1,.19,2.41c-.81,4.14-1.53,8.32-2.7,12.36a5.45,5.45,0,0,1-3.11,3.39c-1.62.4-3.61-.29-5.34-.81a18.76,18.76,0,0,1-3.48-1.9c-.58-.32-1.42-.47-1.7-.95-2.68-4.55-6.4-8.57-7.41-14A18.05,18.05,0,0,1,679.85,397.2Zm9-2.56c-1.26,2.87,1.13,8.18,4.95,11C695.55,401.21,693.57,396.81,688.84,394.64Z"/><path d="M123.69,468c-.45,2.73-1,7.62-2.12,12.37-.95,3.92-7.58,9.24-13.35,8.54-3.36-.4-6.47-1.27-9.07-3.64-2.34-2.12-5-3.93-7.27-6.07-1.57-1.46-3.6-3-1.31-5.62.48-.54.1-1.91,0-2.88-1.11-10.43,3.6-19.19,13.14-24.24,3.36-1.78,6.51-1.89,10,.51C120.18,451.53,123.92,458,123.69,468Zm-25.61,2.14c.17,1.28.39,3.43.73,5.55.32,1.94,6.12,6.93,8.07,6.8a5,5,0,0,0,3.15-1.18,16.67,16.67,0,0,0,3.63-5.5,54.67,54.67,0,0,0,2-10.26,17.91,17.91,0,0,0-3.84-13.06,2.59,2.59,0,0,0-2.38-.64C102.71,455.46,98.22,460.89,98.08,470.18Z"/><path d="M466.19,438.28c6.69-1.84,10,2.7,13.3,6.86a27.9,27.9,0,0,1,4.13,7.51,9.64,9.64,0,0,1-.65,8.64,43.73,43.73,0,0,1-17.81,16.93c-2.78,1.44-5,.71-6.91-1.83a5.35,5.35,0,0,0-1.87-1.49c-5.77-2.83-9.45-7.5-11.68-13.36a5.72,5.72,0,0,1,.07-3.85c3-7.21,7-13.63,14.12-17.49a59.9,59.9,0,0,1,7.29-2.85Zm.84,31.28.61.57c2.53-2.69,5.12-5.34,7.58-8.1a4,4,0,0,0,.56-5.08,88,88,0,0,0-5.37-7.73c-3.35-4.2-7.85-4.74-12.31-1.69-5,3.41-6.84,8.71-4.12,13.06,2.48,4,5.44,7.63,10.87,7.7C465.59,468.3,466.31,469.12,467,469.56Z"/><path d="M556.57,329.41c-.56,1.14-1.34,2.8-2.16,4.43-.22.44-.69.77-.85,1.22-1.54,4.46-5.52,4.81-9.26,5.33-1.9.26-3.84-.12-4.8-2.27a2.13,2.13,0,0,0-1-1c-5.94-2.64-8.68-7.53-9.2-13.68a7.85,7.85,0,0,1,1.73-5,13.27,13.27,0,0,1,18.2-2.56C553.69,319.28,555.65,323.43,556.57,329.41Zm-13.7,4.09c3.32-.37,5.64-2.44,4.94-4.87a14.16,14.16,0,0,0-3.25-6c-1.54-1.54-3.54-3.68-6.28-2.2-1.81,1-1.79,3.71.13,7C539.66,329.53,541.31,331.4,542.87,333.5Z"/><path d="M27.13,132.78c.57-2.34,1-6.2,2.45-9.66,3-7.32,11.83-7.24,16.18-1.82,4.63,5.76,8,12.48,8,20.25a5.11,5.11,0,0,1-.93,2.63c-.85,1.32-1.93,2.49-2.87,3.75-3.5,4.69-8.17,5.52-13.44,2.79C29.76,147.21,27.64,141.26,27.13,132.78ZM38,124.9c-1.67,4.63-2.46,9.27-1,14.09.79,2.58,1.48,5.2,5.28,5.59.65-1.64,2.06-3.44,1.91-5.08A27.82,27.82,0,0,0,38,124.9Z"/><path d="M49.84,55.81a26.35,26.35,0,0,1,.69-14.57,14,14,0,0,1,14.41-9.88c5.64.3,10.9,5.12,11.86,11.08C78,50,77.63,57.37,73.91,64.27c-1.56,2.89-4.56,3.73-7.36,4-7.13.64-13.38-2.14-19-6.23C45,60.18,46,57.41,49.84,55.81ZM69,50.31c-.44-3.11-.57-6.13-1.39-9-.39-1.36-2-3.25-3.15-3.3-1.51-.06-3.19,1.29-4.57,2.34A5.5,5.5,0,0,0,58.55,43a16.58,16.58,0,0,0,.57,12.17c.74,1.66,1.85,3.21,2.3,5s1.57,2,2.71,1.55a5,5,0,0,0,2.69-2.52C67.77,56.29,68.29,53.26,69,50.31Z"/><path d="M151.47,39.53c0-6.88,1.05-13.43,6.33-18.55,6.8-6.6,16.61-6.28,22.38,1.31a8.46,8.46,0,0,1,1.42,3.11c1.47,6.19,1.64,12.31-1.1,18.27-.73,1.58-1.11,3.31-1.8,4.9-1.71,4-4.56,5.67-8.77,4.63-3-.72-5.71-2.15-8.6-3.14a3.55,3.55,0,0,0-2.49,0c-3.33,1.77-6.87-.09-7.06-3.84-.07-1.16-.25-2.31-.3-3.47S151.47,40.61,151.47,39.53Zm23-5.88c-.61-3.2-.79-5.64-1.56-7.87-1.09-3.18-3.59-3.92-6.59-2.32a13.18,13.18,0,0,0-6.25,12.25,3.36,3.36,0,0,0,.6,1.32c1.17,1.72,2.27,3.49,3.6,5.08a25,25,0,0,0,3.9,3.72,1.72,1.72,0,0,0,2.93-1C172.35,41,173.49,37,174.49,33.65Z"/><path d="M143.48,393.14l4.23-1c-.1.81,0,1.55-.23,1.66-2.44,1.19-1.74,3.32-1.91,5.35-.22,2.6-4.12,3.84-6.09,1.77a19.67,19.67,0,0,1-3.81-6.29c-3.93-9.86-1.44-17,6.61-21.11,7.13-3.64,14.31-2.68,20.8,2.45,5.65,4.46,7.23,10.34,6.39,17.11-.32,2.55-.55,5.34-1.76,7.48s-3.36,4.78-5.63,5.5a44.67,44.67,0,0,1-12.51,1.56c-1.52,0-3.19-1.44-4.53-2.54a2.71,2.71,0,0,1-.44-2.56,2.77,2.77,0,0,1,3.18-1.67,45.2,45.2,0,0,0,8.37.71,4.35,4.35,0,0,0,4.5-3.93,41.16,41.16,0,0,0,.74-8.9c-.39-5.48-4.08-9.48-9.44-11a7.75,7.75,0,0,0-9.83,5.38C141.09,386.65,142,390,143.48,393.14Z"/><path d="M426.06,505.27c3,.72,5.49.8,7.41,1.91a118.83,118.83,0,0,1,13.67,9c3.45,2.68,4.13,6.69,2.12,10.56a28.7,28.7,0,0,1-4.8,6.27,30,30,0,0,1-5.32,4.4,5.4,5.4,0,0,1-3.66,1c-6.26-1.54-12.16-3.8-16.41-9.11-5-6.22-5.28-14.71.05-20.59C420.82,506.87,423.94,506.28,426.06,505.27ZM435.68,528a51.81,51.81,0,0,0,5.81-1.88c1.63-.74,1.86-2.1.39-3.34-4.67-3.93-9.61-7.4-15.84-8.35-3.26-.5-4.27.66-3.62,3.93C423.64,524.37,428.38,527.71,435.68,528Z"/><path d="M470.42,359.83c.21-3.28.35-6.32,3.76-7.95a7.82,7.82,0,0,1,2.49-.88,22.3,22.3,0,0,1,16.3,4.84,5.78,5.78,0,0,1,2.24,6.38c-.73,3.06-1.18,6.2-1.63,9.32-.29,2-1.19,3.57-3.25,3.88-2.75.42-5.53.58-8.31.77-.73.05-1.52-.43-2.21-.29-4.11.82-6-1.43-6.92-4.94C472,367.28,471.23,363.54,470.42,359.83Zm8.08-1.44c.73,3.14,1,6.08,2.17,8.64.45,1,2.7,1.43,4.21,1.71.34.06,1.22-1.5,1.48-2.41C487.65,361.72,484.19,358.84,478.5,358.39Z"/><path d="M17.54,458.94c-3.85.13-4.89-1-4.86-4.74a6.85,6.85,0,0,0-1.15-3c-3.83-7,.26-11.43,6.08-13.45,4.83-1.67,7.44-.61,9.57,4.11A18.74,18.74,0,0,1,29,449.25C29.07,456.05,23.43,458.79,17.54,458.94Zm1-15c-1.6,2.94-.27,5.31.05,7.84C21.14,450.57,21.14,447.55,18.56,444Z"/><path d="M796.63,516.65c-.12.37-.15,1.35-.65,1.87a86.81,86.81,0,0,1-7.24,7c-2.61,2.14-7.59.23-8.39-3a1.7,1.7,0,0,1,0-1.16c2.74-4.43,5.27-9,10.17-11.62,3.11-1.66,5.32-.57,5.64,3C796.3,513.88,796.45,515,796.63,516.65Z"/></g><g id="Bottle"><g id="Background"><path d="M276,179.85c-1.46-8.56.13-16.94,1.12-25.35,1.82-15.37,3.43-30.77,5.37-46.12.73-5.77,2.14-11.45,3.23-17.16.28-1.47.62-2.94.76-4.42.43-4.46.8-8.9,3.16-12.91a5.37,5.37,0,0,0,.42-3.12,8.8,8.8,0,0,1,2.49-7.32c2.51-2.67,5.08-5.28,7.74-7.79a10.56,10.56,0,0,1,2.86-1.46c1.16-.53,2.35-1,3.7-1.58-.46-.43-.62-.7-.82-.73-4.23-.79-7.19-3.69-10.31-6.27a4.26,4.26,0,0,1-1.6-3.19c.35-1.89,3.23-3.56,4.71-3.09a5.11,5.11,0,0,1,2.53,1.51c3.29,4.48,8,5.94,13.18,6.5a43.72,43.72,0,0,0,4.58,0,74.9,74.9,0,0,0-7.27-3.9c-1.29-.53-2.94-.25-4.43-.25-2.88,0-4.89-1.38-5.6-4.06-1-3.59-2.17-7.29-2.14-10.93a111.16,111.16,0,0,1,1.73-16.33c.89-5.66,4.77-8.79,10-10.27,8-2.26,16.18-2,24.25-.38,5.55,1.09,11.22,2.22,15.64,6.15,3.53,3.14,5.94,6.82,5.17,12-1.12,7.57-3,14.93-7.05,21.42a18.12,18.12,0,0,1-6.47,5.6c-3.52,2-7.4,3.32-11.74,5.21,3.13,1.49,6,2.58,8.51,4.13a63.56,63.56,0,0,1,9.92,7c1.22,1.11,1.32,3.65,1.56,5.59,1.12,8.9,2.29,17.8,3.07,26.74.5,5.71.22,11.48.53,17.21.57,10.36-.64,20.6-1.58,30.88a192.64,192.64,0,0,0-.59,22.16c.08,3.45.59,7.05,3.06,10.07,1.19,1.46,1.19,3.86,2.31,5.42,3.31,4.64,6.69,9.2,12.08,11.87,4.27,2.11,4.84,4.74,3.12,9.11-2.17,5.5-5.87,9.76-10.25,13.57-5.45,4.75-7.23,10.57-4.89,17.48a2.55,2.55,0,0,0,1.62,1.23c4,1.05,8.12,1.81,12.08,3,7.62,2.34,14.28,5.84,18,13.64,4.82,10.07,9.56,20.15,12.55,30.94,1,3.77,1.8,7.62,2.56,11.45,2.09,10.53,4.35,21,6,31.64.77,4.79.4,9.77.47,14.66.09,6.32.24,12.64.1,18.95-.13,6.15-.64,12.29-.87,18.43a22.36,22.36,0,0,0,.52,5.08c1.47,7.59,3.63,15.1,4.41,22.75,1.11,10.82,1.29,21.75,1.7,32.64.08,2.28-.63,4.58-.89,6.88-.47,4-.59,8.13-1.4,12.09-.86,4.22-2.38,8.3-3.56,12.46-1.6,5.66-4,11.12-3.79,17.21.16,4.38.15,8.76.16,13.15,0,6.85-2.65,12.54-7.39,17.44-2.25,2.31-4.13,5-6.21,7.47-2.7,3.23-5.76,6-9.83,7.44-8.61,3-14.8,9.35-21.6,14.9a10.32,10.32,0,0,1-4.58,2.16c-8.2,1.36-16.57,1.95-24.62,3.9-6,1.45-11.5-.17-17.23-.21h-4.3c.94,1,1.28,1.66,1.79,1.84,3.27,1.12,5.17,5.07,9.27,4.5.23,0,.76.46.76.71s-.44.84-.68.83c-3.31,0-6.63,0-9.92-.31A25.74,25.74,0,0,1,307,558.2a50,50,0,0,1-6.25-3,70.51,70.51,0,0,0-18.33-6.39c-2.42-.55-4.78-1.36-7.51-2.15a21.74,21.74,0,0,0,4.46,10.47,2.52,2.52,0,0,1,.61,1.87,2.21,2.21,0,0,1-1.67,1.15c-3.13.11-6.26,0-9.4,0l.51-.78c-.61-1.34-1.26-2.67-1.82-4a12.32,12.32,0,0,1-.59-2.16c-1.45-6.83-2.93-13.65-4.3-20.5-.46-2.25-.66-4.57-1-6.85-.05-.32.09-.78-.09-1-3.72-3.86-3.16-9.13-4.45-13.75-1.19-4.23-1.78-8.62-2.65-12.94-2.15-10.67-4.57-21.31-6.36-32-.87-5.21-.41-10.63-.81-15.93-.64-8.53-1.46-17.05-2.25-25.56-.43-4.54-1-9.06-1.43-13.56-.35,0-.6-.06-.64,0-4.14,7-11,6.49-17.67,6.33a12.47,12.47,0,0,1-2.71-.38,3.39,3.39,0,0,0-4.17,1.54c-1.21,1.71-3,2.48-5.21,1-16-10.73-25.4-25.79-27.82-44.76a30.24,30.24,0,0,1,5.47-21.74c5.14-7.18,11.28-13.13,19.28-17a64.69,64.69,0,0,1,6.72-2.42c-2.12-2-4.19-3.88-6.2-5.83-2.51-2.43-2.44-4,.1-6.48a13.19,13.19,0,0,0,1.33-1.89c-1.95-5-4-10.55-3.9-16.59.17-7.52,1.08-15,6.45-20.72a59.65,59.65,0,0,1,11.92-9.29,51.89,51.89,0,0,1,10.91-4.71c6.22-2.09,11.28.42,15.48,4.87a24.34,24.34,0,0,1,6,12.34c.13.62.34,1.23.4,1.44,7.55-13.54,15.18-27.25,22.83-41-.28-.25-.44-.49-.64-.54-5.24-1.21-5.41-1.2-5.42-6.33a6.59,6.59,0,0,1,2.09-4c6.41-6.45,6.3-6.27.5-13.13-3-3.57-5.37-7.72-8-11.61a40.48,40.48,0,0,0-2.35-3.51c-3.68-4.35-5.59-9.2-4.58-15,.35-2,.42-4,.89-5.92a3.56,3.56,0,0,1,1.69-2.15C269.53,182.31,272.71,181.15,276,179.85Z"/></g><g id="Outline"><path d="M276,179.85c-1.46-8.56.13-16.94,1.12-25.35,1.82-15.37,3.43-30.77,5.37-46.12.73-5.77,2.14-11.45,3.23-17.16.28-1.47.62-2.94.76-4.42.43-4.46.8-8.9,3.16-12.91a5.37,5.37,0,0,0,.42-3.12,8.8,8.8,0,0,1,2.49-7.32c2.51-2.67,5.08-5.28,7.74-7.79a10.56,10.56,0,0,1,2.86-1.46c1.16-.53,2.35-1,3.7-1.58-.46-.43-.62-.7-.82-.73-4.23-.79-7.19-3.69-10.31-6.27a4.26,4.26,0,0,1-1.6-3.19c.35-1.89,3.23-3.56,4.71-3.09a5.11,5.11,0,0,1,2.53,1.51c3.29,4.48,8,5.94,13.18,6.5a43.72,43.72,0,0,0,4.58,0,74.9,74.9,0,0,0-7.27-3.9c-1.29-.53-2.94-.25-4.43-.25-2.88,0-4.89-1.38-5.6-4.06-1-3.59-2.17-7.29-2.14-10.93a111.16,111.16,0,0,1,1.73-16.33c.89-5.66,4.77-8.79,10-10.27,8-2.26,16.18-2,24.25-.38,5.55,1.09,11.22,2.22,15.64,6.15,3.53,3.14,5.94,6.82,5.17,12-1.12,7.57-3,14.93-7.05,21.42a18.12,18.12,0,0,1-6.47,5.6c-3.52,2-7.4,3.32-11.74,5.21,3.13,1.49,6,2.58,8.51,4.13a63.56,63.56,0,0,1,9.92,7c1.22,1.11,1.32,3.65,1.56,5.59,1.12,8.9,2.29,17.8,3.07,26.74.5,5.71.22,11.48.53,17.21.57,10.36-.64,20.6-1.58,30.88a192.64,192.64,0,0,0-.59,22.16c.08,3.45.59,7.05,3.06,10.07,1.19,1.46,1.19,3.86,2.31,5.42,3.31,4.64,6.69,9.2,12.08,11.87,4.27,2.11,4.84,4.74,3.12,9.11-2.17,5.5-5.87,9.76-10.25,13.57-5.45,4.75-7.23,10.57-4.89,17.48a2.55,2.55,0,0,0,1.62,1.23c4,1.05,8.12,1.81,12.08,3,7.62,2.34,14.28,5.84,18,13.64,4.82,10.07,9.56,20.15,12.55,30.94,1,3.77,1.8,7.62,2.56,11.45,2.09,10.53,4.35,21,6,31.64.77,4.79.4,9.77.47,14.66.09,6.32.24,12.64.1,18.95-.13,6.15-.64,12.29-.87,18.43a22.36,22.36,0,0,0,.52,5.08c1.47,7.59,3.63,15.1,4.41,22.75,1.11,10.82,1.29,21.75,1.7,32.64.08,2.28-.63,4.58-.89,6.88-.47,4-.59,8.13-1.4,12.09-.86,4.22-2.38,8.3-3.56,12.46-1.6,5.66-4,11.12-3.79,17.21.16,4.38.15,8.76.16,13.15,0,6.85-2.65,12.54-7.39,17.44-2.25,2.31-4.13,5-6.21,7.47-2.7,3.23-5.76,6-9.83,7.44-8.61,3-14.8,9.35-21.6,14.9a10.32,10.32,0,0,1-4.58,2.16c-8.2,1.36-16.57,1.95-24.62,3.9-6,1.45-11.5-.17-17.23-.21h-4.3c.94,1,1.28,1.66,1.79,1.84,3.27,1.12,5.17,5.07,9.27,4.5.23,0,.76.46.76.71s-.44.84-.68.83c-3.31,0-6.63,0-9.92-.31A25.74,25.74,0,0,1,307,558.2a50,50,0,0,1-6.25-3,70.51,70.51,0,0,0-18.33-6.39c-2.42-.55-4.78-1.36-7.51-2.15a21.74,21.74,0,0,0,4.46,10.47,2.52,2.52,0,0,1,.61,1.87,2.21,2.21,0,0,1-1.67,1.15c-3.13.11-6.26,0-9.4,0l.51-.78c-.61-1.34-1.26-2.67-1.82-4a12.32,12.32,0,0,1-.59-2.16c-1.45-6.83-2.93-13.65-4.3-20.5-.46-2.25-.66-4.57-1-6.85-.05-.32.09-.78-.09-1-3.72-3.86-3.16-9.13-4.45-13.75-1.19-4.23-1.78-8.62-2.65-12.94-2.15-10.67-4.57-21.31-6.36-32-.87-5.21-.41-10.63-.81-15.93-.64-8.53-1.46-17.05-2.25-25.56-.43-4.54-1-9.06-1.43-13.56-.35,0-.6-.06-.64,0-4.14,7-11,6.49-17.67,6.33a12.47,12.47,0,0,1-2.71-.38,3.39,3.39,0,0,0-4.17,1.54c-1.21,1.71-3,2.48-5.21,1-16-10.73-25.4-25.79-27.82-44.76a30.24,30.24,0,0,1,5.47-21.74c5.14-7.18,11.28-13.13,19.28-17a64.69,64.69,0,0,1,6.72-2.42c-2.12-2-4.19-3.88-6.2-5.83-2.51-2.43-2.44-4,.1-6.48a13.19,13.19,0,0,0,1.33-1.89c-1.95-5-4-10.55-3.9-16.59.17-7.52,1.08-15,6.45-20.72a59.65,59.65,0,0,1,11.92-9.29,51.89,51.89,0,0,1,10.91-4.71c6.22-2.09,11.28.42,15.48,4.87a24.34,24.34,0,0,1,6,12.34c.13.62.34,1.23.4,1.44,7.55-13.54,15.18-27.25,22.83-41-.28-.25-.44-.49-.64-.54-5.24-1.21-5.41-1.2-5.42-6.33a6.59,6.59,0,0,1,2.09-4c6.41-6.45,6.3-6.27.5-13.13-3-3.57-5.37-7.72-8-11.61a40.48,40.48,0,0,0-2.35-3.51c-3.68-4.35-5.59-9.2-4.58-15,.35-2,.42-4,.89-5.92a3.56,3.56,0,0,1,1.69-2.15C269.53,182.31,272.71,181.15,276,179.85ZM283.64,239l.42.65a5,5,0,0,0,1.2.14c2-.21,3.48.21,3.64,2.59a1.25,1.25,0,0,0,.55.81c2.42,1.57,1.56,3.52.59,5.41q-2.37,4.65-4.89,9.22c-3.65,6.61-7,13.37-11.11,19.71a65.36,65.36,0,0,0-8.32,19.38c-.92,3.63-1.32,7.59-3.11,10.75A49,49,0,0,0,257,321.91c-1.47,7.07-3.26,14.07-4.74,21.14-.85,4.06-1.4,8.19-2,12.3-.41,3-.63,6-.94,9.17l1.74.33c7.35,1.35,14.72,2.58,22,4.07,11.46,2.35,22.8,5.38,34.34,7.18a221,221,0,0,0,29.32,2.3c7.87.17,15.76-1.12,23.66-1.23,6.23-.09,11.87-1.2,16.57-5.53.43-.39,1-.59,1.45-1,5.39-4.79,10.72-9.64,16.14-14.38,3.91-3.41,5.9-8.72,11-11a2,2,0,0,0,.75-1.44,63.15,63.15,0,0,0-.79-20.61c-1.29-5.76-2.41-11.57-3.59-17.36-1.93-9.54-3.11-19.26-7-28.31q-2.94-6.86-5.93-13.7a20.24,20.24,0,0,1-1.56-3.35c-1.85-8.1-7.31-12.37-15-14.33-2-.52-4.14-.66-6-1.41a46.61,46.61,0,0,0-19.13-2.8,2.72,2.72,0,0,1-3-2.17,14.67,14.67,0,0,1-.6-3.44c-.2-2.31.78-3.39,3.11-3.49,1.34,0,2.68,0,4.29,0a7.32,7.32,0,0,1-.94-1.75c-.45-2.73-1.73-5.76-1-8.17a27.13,27.13,0,0,1,8.3-12.84A26.06,26.06,0,0,0,365,200c.63-1.6.31-2.5-1.24-3.45a37.24,37.24,0,0,1-6.23-4.81c-3.46-3.34-6.88-6.75-8.6-11.46-1.44-3.92-4-7.67-4.41-11.67-.72-6.39-.15-12.92-.06-19.39.05-3.07.26-6.14.42-9.77-2.48,2.36-4.48,4.22-6.41,6.14A38.2,38.2,0,0,1,321.94,155a26.4,26.4,0,0,1-16.71-.87,47.45,47.45,0,0,0-5.52-1.53c-4-1-8.14-1.93-11.06-5.29-.77-.9-1.51-1.83-2.42-2.94-.82,6.42-1.72,12.48-2.35,18.57-.53,5.1-1.57,10.22-.19,15.39.2.78-.71,1.87-1.15,2.79-.32.68-1.11,1.41-1,2,.36,1.69-.59,2.32-1.82,2.78a21.75,21.75,0,0,1-4.75,1.48c-2,.24-2.86,1-2.73,3a16.22,16.22,0,0,1-.22,2.49c-.36,3.8.29,7.21,3.18,10.08a21.41,21.41,0,0,1,2.92,4.62c2.27,4,4.48,7.81,8.4,10.62,6.43,4.6,6.56,12.26.75,17.41C286,236.65,284.85,237.84,283.64,239ZM304.8,547.58c.35-2.34,2-3.2,4.39-3.08,4,.2,8,.27,12,.59a36.62,36.62,0,0,0,10.13-.15c7.75-1.47,15.6-2.4,23.41-3.52,1.55-.22,3.41.2,4.62-.52A30.61,30.61,0,0,0,367,535c3.1-3.63,7-5.81,11.08-7.88,3.24-1.65,6.93-2.82,9.56-5.17,4.3-3.86,8-8.45,11.74-12.87a9.41,9.41,0,0,0,2.19-4.42c.73-4.83,1.63-9.73,1.5-14.58-.17-6.23.16-12.37,2.41-18.11,3.83-9.83,5.52-20,6.35-30.41.24-3,.33-6,.51-9.35-2.61,2.8-4.55,5.48-7.06,7.42-3.61,2.79-7.35,5.89-11.56,7.33-7.06,2.41-14.43,3.94-21.13,7.44a6.87,6.87,0,0,1-2.63.48c-6.53.49-13.15.49-19.59,1.55a114.44,114.44,0,0,1-16.77,1.87c-9.95.17-19.89,1.35-29.84,2-8.63.57-17.27,1.42-25.9,1.34-7.17-.06-14.55-.43-20.76-5-.23-.17-.59-.14-1.17-.27a24.74,24.74,0,0,0,0,2.87c.86,6.49,1.57,13,2.71,19.44,1,5.64,2.5,11.19,3.73,16.79.89,4.06,1.67,8.14,2.52,12.21,1,4.63,1.85,9.28,3,13.87,1,4,2.31,7.85,3.43,11.78.75,2.61,1.41,5.24,2.18,8.1a9.18,9.18,0,0,1,1.84-1c1.12-.3,2.4-.86,3.4-.57C287.33,542.3,295.9,544.92,304.8,547.58ZM250,370.81c-.07,1-.21,1.85-.19,2.74.16,6.06.12,12.13.59,18.17.88,11.43,2.05,22.85,3.13,34.27.54,5.77,1.39,11.52,1.68,17.31s1.18,7.26,6.87,8.85a4.21,4.21,0,0,0,.48.12,62.09,62.09,0,0,0,21,1.64c12.74-1.42,25.54-2.21,38.32-3.24.83-.07,1.67.05,2.5,0,5.72-.28,11.46-.39,17.16-.94,4-.38,7.83-1.65,11.79-2,8.33-.79,16.79-.6,24.61-4.23a1.11,1.11,0,0,1,.25-.05c6.17-2.38,12.94-3.43,18.3-7.64,3.16-2.48,6.69-4.66,8.61-8.45,1.19-2.34,2.49-4.62,3.7-6.86l2.75.55c0-1,.05-1.75,0-2.49-.46-6.13-.67-12.29-1.5-18.36-.68-4.93-2.17-9.73-3.23-14.61a27,27,0,0,1-1-6.31c.15-4.48.78-8.94,1-13.42.17-2.94,0-5.89,0-8.83l-.89-.27c-2.67,2.79-5.31,5.61-8,8.36-2.26,2.3-4.6,4.53-6.91,6.79a7.26,7.26,0,0,1-.92.83c-3.37,2.37-6.76,4.71-10.13,7.08a29.87,29.87,0,0,1-2.61,1.94c-1.54.84-3.12,2-4.78,2.19-7.08.9-14.19,1.51-21.29,2.24-14.05,1.46-27.95-.29-41.79-2.3-6.31-.91-12.48-2.74-18.73-4.09-5.85-1.26-11.73-2.33-17.56-3.67-7.29-1.67-14.53-3.53-21.8-5.29A7.52,7.52,0,0,0,250,370.81Zm95.57-237.18c2.52-7.93,1.31-52.35-2.66-58.75a20.46,20.46,0,0,0-3.33,1.45,43.54,43.54,0,0,1-13.5,5.56c-7.62,2-14.78,1.66-21.51-2.91-1.87-1.27-4.14-1.93-6.27-2.88a30.06,30.06,0,0,0-3.68,13.2,13.59,13.59,0,0,1-.36,2.7c-1.25,5.76-2.81,11.47-3.73,17.28-1.46,9.19-2.49,18.44-3.7,27.66-.08.64-.13,1.28-.23,2.31a15.35,15.35,0,0,0,3.75-.66c1.45-.65,2-.28,2.66,1.07a11.08,11.08,0,0,0,8.14,6.67c3.25.69,6.4,2.06,9.67,2.39,3.56.36,7.47.66,10.77-.43,6.35-2.09,11.14-6.87,15.51-11.77C339.5,133.81,341.79,132.09,345.56,133.63Zm-153.27,239c.88,3.23,1.84,8.5,3.73,13.41,3,7.81,7.21,15,13.58,20.67a5.09,5.09,0,0,0,2.24,1.47q9.27,1.2,18.57,2.14c3.48.35,6.44-.3,7.45-4.4a14,14,0,0,1,1.74-3.3,17.37,17.37,0,0,0,2-11.79c-1.45-9-2.56-18.13-4.32-27.1a82,82,0,0,0-4.71-15.47c-3.56-8.58-11.34-11.18-19.74-7.08-7.34,3.59-12.54,9.47-17.07,16.05C193,361.28,192.59,365.9,192.29,372.65ZM334.68,42.75c3.9-1.75,7.69-3.61,9.05-7.63a117.64,117.64,0,0,0,4.34-16.82c.77-4.28-.27-5.28-4.27-7a44.32,44.32,0,0,0-23.19-3.41c-8.49,1-11.29,3.4-12.47,11.82-.8,5.7-1.3,11.5,1.32,16.93.63,1.31,2,2.26,3,3.37l.71-.48c-.07-.8-.08-1.61-.21-2.41A30.91,30.91,0,0,1,314,23a7.7,7.7,0,0,1,6.26-5.75c7.38-1.43,14,2.84,16.15,10.08C338,32.68,335.76,37.47,334.68,42.75ZM342,65.6c-3.59-2-6.61-4.37-10-5.58a36,36,0,0,0-11.39-2.11c-7.14-.11-14.18.73-19,7.12-.81,1.07-1.69,2.09-2.54,3.14.48.43.58.59.73.64a5.48,5.48,0,0,0,1.18.34,14.47,14.47,0,0,1,9,4.2,8.88,8.88,0,0,0,8.73,2.58,60.85,60.85,0,0,0,9.68-3.16C332.78,70.75,337,68.26,342,65.6ZM251.23,297.65a48.69,48.69,0,0,0-.07-7.52c-.57-3.66-1.13-7.49-2.65-10.81-2.71-6-6.61-7.27-12.4-4.41a52.41,52.41,0,0,0-10.43,6.71c-3.76,3.15-7.72,6.24-8.72,11.73-.87,4.8-1.25,9.41.54,14,.16-9.57,4.78-16.22,13.94-18.21C239.55,287.43,245.69,292.4,251.23,297.65Zm-8.58,6.88c.85-4.39-2.31-6.64-6-8.54-3.35-1.74-5.63-.94-8,2-3.71,4.68-3,9.61-1.4,14.68.61,1.87,3.92,3.85,5.71,3.69C236.84,316,243.58,310.43,242.65,304.53Zm7.13,8c-.94,1.07-1.5,1.76-2.11,2.39-5.54,5.68-11.85,9.32-20.19,7.82a5.75,5.75,0,0,1-4.54-3.39,6.65,6.65,0,0,0-1.49-1.73l-5.25,4.64c3.19,5.31,10.14,8.16,16.67,6.63,2.1-.49,4.2-1,6.29-1.52C246.7,325.47,250.39,320.56,249.78,312.53ZM242.34,350l.71-.08,3-17.33-13.26,3.28A27.55,27.55,0,0,1,242.34,350Zm78.19-318c.3,2.41.55,4.06.69,5.71.21,2.25,1.39,2.19,3.11,1.58,3.21-1.12,3.77-3.81,3.9-6.6.15-3.06-.32-6.07-3.05-8-1.16-.83-2.56-.78-3.05.81C321.41,27.75,321,30.19,320.53,31.93Z"/></g><g id="Title"><text class="cls-1" transform="translate(270.85 425.34) rotate(-3.97)">Happiness</text></g></g></svg>